<svg class="railroad-diagram" height="220" viewbox="0 0 541.5 220" width="541.5" xmlns="http://www.w3.org/2000/svg">
 <g transform="translate(.5 .5)">
  <g>
   <path d="M20 29v20m0 -10h20">
   </path>
  </g>
  <g>
   <path d="M40 39h0">
   </path>
   <path d="M501.5 39h0">
   </path>
   <path d="M40 39h20">
   </path>
   <g>
    <path d="M60 39h0">
    </path>
    <path d="M481.5 39h0">
    </path>
    <g>
     <path d="M60 39h0">
     </path>
     <path d="M162.5 39h0">
     </path>
     <path d="M60 39h20">
     </path>
     <g class="terminal">
      <path d="M80 39h8.5">
      </path>
      <path d="M134 39h8.5">
      </path>
      <rect height="22" rx="10" ry="10" width="45.5" x="88.5" y="28">
      </rect>
      <text x="111.25" y="43">
       AVG
      </text>
     </g>
     <path d="M142.5 39h20">
     </path>
     <path d="M60 39a10 10 0 0 1 10 10v10a10 10 0 0 0 10 10">
     </path>
     <g class="terminal">
      <path d="M80 69h0">
      </path>
      <path d="M142.5 69h0">
      </path>
      <rect height="22" rx="10" ry="10" width="62.5" x="80" y="58">
      </rect>
      <text x="111.25" y="73">
       COUNT
      </text>
     </g>
     <path d="M142.5 69a10 10 0 0 0 10 -10v-10a10 10 0 0 1 10 -10">
     </path>
     <path d="M60 39a10 10 0 0 1 10 10v40a10 10 0 0 0 10 10">
     </path>
     <g class="terminal">
      <path d="M80 99h8.5">
      </path>
      <path d="M134 99h8.5">
      </path>
      <rect height="22" rx="10" ry="10" width="45.5" x="88.5" y="88">
      </rect>
      <text x="111.25" y="103">
       MAX
      </text>
     </g>
     <path d="M142.5 99a10 10 0 0 0 10 -10v-40a10 10 0 0 1 10 -10">
     </path>
     <path d="M60 39a10 10 0 0 1 10 10v70a10 10 0 0 0 10 10">
     </path>
     <g class="terminal">
      <path d="M80 129h8.5">
      </path>
      <path d="M134 129h8.5">
      </path>
      <rect height="22" rx="10" ry="10" width="45.5" x="88.5" y="118">
      </rect>
      <text x="111.25" y="133">
       MIN
      </text>
     </g>
     <path d="M142.5 129a10 10 0 0 0 10 -10v-70a10 10 0 0 1 10 -10">
     </path>
     <path d="M60 39a10 10 0 0 1 10 10v100a10 10 0 0 0 10 10">
     </path>
     <g class="terminal">
      <path d="M80 159h8.5">
      </path>
      <path d="M134 159h8.5">
      </path>
      <rect height="22" rx="10" ry="10" width="45.5" x="88.5" y="148">
      </rect>
      <text x="111.25" y="163">
       SUM
      </text>
     </g>
     <path d="M142.5 159a10 10 0 0 0 10 -10v-100a10 10 0 0 1 10 -10">
     </path>
    </g>
    <path d="M162.5 39h10">
    </path>
    <g class="terminal">
     <path d="M172.5 39h0">
     </path>
     <path d="M201 39h0">
     </path>
     <rect height="22" rx="10" ry="10" width="28.5" x="172.5" y="28">
     </rect>
     <text x="186.75" y="43">
      (
     </text>
    </g>
    <path d="M201 39h10">
    </path>
    <g>
     <path d="M211 39h0">
     </path>
     <path d="M443 39h0">
     </path>
     <path d="M211 39h20">
     </path>
     <g>
      <path d="M231 39h0">
      </path>
      <path d="M423 39h0">
      </path>
      <g>
       <path d="M231 39h0">
       </path>
       <path d="M359 39h0">
       </path>
       <path d="M231 39a10 10 0 0 0 10 -10v0a10 10 0 0 1 10 -10">
       </path>
       <g>
        <path d="M251 19h88">
        </path>
       </g>
       <path d="M339 19a10 10 0 0 1 10 10v0a10 10 0 0 0 10 10">
       </path>
       <path d="M231 39h20">
       </path>
       <g class="terminal">
        <path d="M251 39h0">
        </path>
        <path d="M339 39h0">
        </path>
        <rect height="22" rx="10" ry="10" width="88" x="251" y="28">
        </rect>
        <text x="295" y="43">
         DISTINCT
        </text>
       </g>
       <path d="M339 39h20">
       </path>
      </g>
      <path d="M359 39h10">
      </path>
      <g class="non-terminal">
       <path d="M369 39h0">
       </path>
       <path d="M423 39h0">
       </path>
       <rect height="22" width="54" x="369" y="28">
       </rect>
       <a>
        <text x="396" y="43">
         expr
        </text>
       </a>
      </g>
     </g>
     <path d="M423 39h20">
     </path>
     <path d="M211 39a10 10 0 0 1 10 10v10a10 10 0 0 0 10 10">
     </path>
     <g class="terminal">
      <path d="M231 69h81.75">
      </path>
      <path d="M341.25 69h81.75">
      </path>
      <rect height="22" rx="10" ry="10" width="28.5" x="312.75" y="58">
      </rect>
      <text x="327" y="73">
       *
      </text>
     </g>
     <path d="M423 69a10 10 0 0 0 10 -10v-10a10 10 0 0 1 10 -10">
     </path>
    </g>
    <path d="M443 39h10">
    </path>
    <g class="terminal">
     <path d="M453 39h0">
     </path>
     <path d="M481.5 39h0">
     </path>
     <rect height="22" rx="10" ry="10" width="28.5" x="453" y="28">
     </rect>
     <text x="467.25" y="43">
      )
     </text>
    </g>
   </g>
   <path d="M481.5 39h20">
   </path>
   <path d="M40 39a10 10 0 0 1 10 10v130a10 10 0 0 0 10 10">
   </path>
   <g>
    <path d="M60 189h11.5">
    </path>
    <path d="M470 189h11.5">
    </path>
    <g class="terminal">
     <path d="M71.5 189h0">
     </path>
     <path d="M176.5 189h0">
     </path>
     <rect height="22" rx="10" ry="10" width="105" x="71.5" y="178">
     </rect>
     <text x="124" y="193">
      PERCENTILE
     </text>
    </g>
    <path d="M176.5 189h10">
    </path>
    <path d="M186.5 189h10">
    </path>
    <g class="terminal">
     <path d="M196.5 189h0">
     </path>
     <path d="M225 189h0">
     </path>
     <rect height="22" rx="10" ry="10" width="28.5" x="196.5" y="178">
     </rect>
     <text x="210.75" y="193">
      (
     </text>
    </g>
    <path d="M225 189h10">
    </path>
    <path d="M235 189h10">
    </path>
    <g class="non-terminal">
     <path d="M245 189h0">
     </path>
     <path d="M299 189h0">
     </path>
     <rect height="22" width="54" x="245" y="178">
     </rect>
     <a>
      <text x="272" y="193">
       expr
      </text>
     </a>
    </g>
    <path d="M299 189h10">
    </path>
    <path d="M309 189h10">
    </path>
    <g class="terminal">
     <path d="M319 189h0">
     </path>
     <path d="M347.5 189h0">
     </path>
     <rect height="22" rx="10" ry="10" width="28.5" x="319" y="178">
     </rect>
     <text x="333.25" y="193">
      ,
     </text>
    </g>
    <path d="M347.5 189h10">
    </path>
    <path d="M357.5 189h10">
    </path>
    <g class="non-terminal">
     <path d="M367.5 189h0">
     </path>
     <path d="M421.5 189h0">
     </path>
     <rect height="22" width="54" x="367.5" y="178">
     </rect>
     <a>
      <text x="394.5" y="193">
       expr
      </text>
     </a>
    </g>
    <path d="M421.5 189h10">
    </path>
    <path d="M431.5 189h10">
    </path>
    <g class="terminal">
     <path d="M441.5 189h0">
     </path>
     <path d="M470 189h0">
     </path>
     <rect height="22" rx="10" ry="10" width="28.5" x="441.5" y="178">
     </rect>
     <text x="455.75" y="193">
      )
     </text>
    </g>
   </g>
   <path d="M481.5 189a10 10 0 0 0 10 -10v-130a10 10 0 0 1 10 -10">
   </path>
  </g>
  <path d="M 501.5 39 h 20 m 0 -10 v 20">
  </path>
 </g>
 <style>
  svg {
    width: 100%;
}

path {
    stroke-width: 3;
    stroke: black;
    fill: rgba(0,0,0,0);
}
text {
    font: bold 14px monospace;
    text-anchor: middle;
    fill: black;
}
text.diagram-text {
    font-size: 12px;
}
text.diagram-arrow {
    font-size: 16px;
}
text.label {
    text-anchor: start;
}
text.comment {
    font: italic 12px monospace;
}
g.special-sequence rect {
    fill: #ffe79a;
    stroke: black;
}
g.special-sequence text {
    font-style: italic;
}
rect {
    stroke-width: 3;
}
rect.group-box {
    stroke: gray;
    stroke-dasharray: 10 5;
    fill: none;
}
g.non-terminal rect {
    fill: #feffdf;
    stroke: black;
}
g.terminal rect {
    fill: #feffdf;
    stroke: black;
}
path.diagram-text {
    stroke-width: 3;
    stroke: black;
    fill: white;
    cursor: help;
}
g.diagram-text:hover path.diagram-text {
    fill: #eee;
}
 </style>
</svg>
