<svg class="railroad-diagram" height="92" viewbox="0 0 533.5 92" width="533.5" xmlns="http://www.w3.org/2000/svg">
 <g transform="translate(.5 .5)">
  <g>
   <path d="M20 21v20m0 -10h20">
   </path>
  </g>
  <path d="M40 31h10">
  </path>
  <g>
   <path d="M50 31h0">
   </path>
   <path d="M483.5 31h0">
   </path>
   <g class="terminal">
    <path d="M50 31h0">
    </path>
    <path d="M112.5 31h0">
    </path>
    <rect height="22" rx="10" ry="10" width="62.5" x="50" y="20">
    </rect>
    <text x="81.25" y="35">
     ALTER
    </text>
   </g>
   <path d="M112.5 31h10">
   </path>
   <path d="M122.5 31h10">
   </path>
   <g class="terminal">
    <path d="M132.5 31h0">
    </path>
    <path d="M195 31h0">
    </path>
    <rect height="22" rx="10" ry="10" width="62.5" x="132.5" y="20">
    </rect>
    <text x="163.75" y="35">
     TABLE
    </text>
   </g>
   <path d="M195 31h10">
   </path>
   <path d="M205 31h10">
   </path>
   <g class="non-terminal">
    <path d="M215 31h0">
    </path>
    <path d="M320 31h0">
    </path>
    <rect height="22" width="105" x="215" y="20">
    </rect>
    <a>
     <text x="267.5" y="35">
      table_name
     </text>
    </a>
   </g>
   <path d="M320 31h10">
   </path>
   <g>
    <path d="M330 31h0">
    </path>
    <path d="M483.5 31h0">
    </path>
    <path d="M330 31h20">
    </path>
    <g class="non-terminal">
     <path d="M350 31h4.25">
     </path>
     <path d="M459.25 31h4.25">
     </path>
     <rect height="22" width="105" x="354.25" y="20">
     </rect>
     <a>
      <text x="406.75" y="35">
       add_column
      </text>
     </a>
    </g>
    <path d="M463.5 31h20">
    </path>
    <path d="M330 31a10 10 0 0 1 10 10v10a10 10 0 0 0 10 10">
    </path>
    <g class="non-terminal">
     <path d="M350 61h0">
     </path>
     <path d="M463.5 61h0">
     </path>
     <rect height="22" width="113.5" x="350" y="50">
     </rect>
     <a>
      <text x="406.75" y="65">
       drop_column
      </text>
     </a>
    </g>
    <path d="M463.5 61a10 10 0 0 0 10 -10v-10a10 10 0 0 1 10 -10">
    </path>
   </g>
  </g>
  <path d="M483.5 31h10">
  </path>
  <path d="M 493.5 31 h 20 m 0 -10 v 20">
  </path>
 </g>
 <style>
  svg {
    width: 100%;
}

path {
    stroke-width: 3;
    stroke: black;
    fill: rgba(0,0,0,0);
}
text {
    font: bold 14px monospace;
    text-anchor: middle;
    fill: black;
}
text.diagram-text {
    font-size: 12px;
}
text.diagram-arrow {
    font-size: 16px;
}
text.label {
    text-anchor: start;
}
text.comment {
    font: italic 12px monospace;
}
g.special-sequence rect {
    fill: #ffe79a;
    stroke: black;
}
g.special-sequence text {
    font-style: italic;
}
rect {
    stroke-width: 3;
}
rect.group-box {
    stroke: gray;
    stroke-dasharray: 10 5;
    fill: none;
}
g.non-terminal rect {
    fill: #feffdf;
    stroke: black;
}
g.terminal rect {
    fill: #feffdf;
    stroke: black;
}
path.diagram-text {
    stroke-width: 3;
    stroke: black;
    fill: white;
    cursor: help;
}
g.diagram-text:hover path.diagram-text {
    fill: #eee;
}
 </style>
</svg>
