<svg class="railroad-diagram" height="79" viewbox="0 0 817.5 79" width="817.5" xmlns="http://www.w3.org/2000/svg">
 <g transform="translate(.5 .5)">
  <g>
   <path d="M20 29v20m0 -10h20">
   </path>
  </g>
  <path d="M40 39h10">
  </path>
  <g>
   <path d="M50 39h0">
   </path>
   <path d="M767.5 39h0">
   </path>
   <g class="terminal">
    <path d="M50 39h0">
    </path>
    <path d="M104 39h0">
    </path>
    <rect height="22" rx="10" ry="10" width="54" x="50" y="28">
    </rect>
    <text x="77" y="43">
     CASE
    </text>
   </g>
   <path d="M104 39h10">
   </path>
   <g>
    <path d="M114 39h0">
    </path>
    <path d="M208 39h0">
    </path>
    <path d="M114 39a10 10 0 0 0 10 -10v0a10 10 0 0 1 10 -10">
    </path>
    <g>
     <path d="M134 19h54">
     </path>
    </g>
    <path d="M188 19a10 10 0 0 1 10 10v0a10 10 0 0 0 10 10">
    </path>
    <path d="M114 39h20">
    </path>
    <g class="non-terminal">
     <path d="M134 39h0">
     </path>
     <path d="M188 39h0">
     </path>
     <rect height="22" width="54" x="134" y="28">
     </rect>
     <a>
      <text x="161" y="43">
       expr
      </text>
     </a>
    </g>
    <path d="M188 39h20">
    </path>
   </g>
   <g>
    <path d="M208 39h0">
    </path>
    <path d="M544 39h0">
    </path>
    <path d="M208 39a10 10 0 0 0 10 -10v0a10 10 0 0 1 10 -10">
    </path>
    <g>
     <path d="M228 19h296">
     </path>
    </g>
    <path d="M524 19a10 10 0 0 1 10 10v0a10 10 0 0 0 10 10">
    </path>
    <path d="M208 39h20">
    </path>
    <g>
     <path d="M228 39h0">
     </path>
     <path d="M524 39h0">
     </path>
     <path d="M228 39h10">
     </path>
     <g>
      <path d="M238 39h0">
      </path>
      <path d="M514 39h0">
      </path>
      <g class="terminal">
       <path d="M238 39h0">
       </path>
       <path d="M292 39h0">
       </path>
       <rect height="22" rx="10" ry="10" width="54" x="238" y="28">
       </rect>
       <text x="265" y="43">
        WHEN
       </text>
      </g>
      <path d="M292 39h10">
      </path>
      <path d="M302 39h10">
      </path>
      <g class="non-terminal">
       <path d="M312 39h0">
       </path>
       <path d="M366 39h0">
       </path>
       <rect height="22" width="54" x="312" y="28">
       </rect>
       <a>
        <text x="339" y="43">
         expr
        </text>
       </a>
      </g>
      <path d="M366 39h10">
      </path>
      <path d="M376 39h10">
      </path>
      <g class="terminal">
       <path d="M386 39h0">
       </path>
       <path d="M440 39h0">
       </path>
       <rect height="22" rx="10" ry="10" width="54" x="386" y="28">
       </rect>
       <text x="413" y="43">
        THEN
       </text>
      </g>
      <path d="M440 39h10">
      </path>
      <path d="M450 39h10">
      </path>
      <g class="non-terminal">
       <path d="M460 39h0">
       </path>
       <path d="M514 39h0">
       </path>
       <rect height="22" width="54" x="460" y="28">
       </rect>
       <a>
        <text x="487" y="43">
         expr
        </text>
       </a>
      </g>
     </g>
     <path d="M514 39h10">
     </path>
     <path d="M238 39a10 10 0 0 0 -10 10v0a10 10 0 0 0 10 10">
     </path>
     <g>
      <path d="M238 59h276">
      </path>
     </g>
     <path d="M514 59a10 10 0 0 0 10 -10v0a10 10 0 0 0 -10 -10">
     </path>
    </g>
    <path d="M524 39h20">
    </path>
   </g>
   <g>
    <path d="M544 39h0">
    </path>
    <path d="M712 39h0">
    </path>
    <path d="M544 39a10 10 0 0 0 10 -10v0a10 10 0 0 1 10 -10">
    </path>
    <g>
     <path d="M564 19h128">
     </path>
    </g>
    <path d="M692 19a10 10 0 0 1 10 10v0a10 10 0 0 0 10 10">
    </path>
    <path d="M544 39h20">
    </path>
    <g>
     <path d="M564 39h0">
     </path>
     <path d="M692 39h0">
     </path>
     <g class="terminal">
      <path d="M564 39h0">
      </path>
      <path d="M618 39h0">
      </path>
      <rect height="22" rx="10" ry="10" width="54" x="564" y="28">
      </rect>
      <text x="591" y="43">
       ELSE
      </text>
     </g>
     <path d="M618 39h10">
     </path>
     <path d="M628 39h10">
     </path>
     <g class="non-terminal">
      <path d="M638 39h0">
      </path>
      <path d="M692 39h0">
      </path>
      <rect height="22" width="54" x="638" y="28">
      </rect>
      <a>
       <text x="665" y="43">
        expr
       </text>
      </a>
     </g>
    </g>
    <path d="M692 39h20">
    </path>
   </g>
   <path d="M712 39h10">
   </path>
   <g class="terminal">
    <path d="M722 39h0">
    </path>
    <path d="M767.5 39h0">
    </path>
    <rect height="22" rx="10" ry="10" width="45.5" x="722" y="28">
    </rect>
    <text x="744.75" y="43">
     END
    </text>
   </g>
  </g>
  <path d="M767.5 39h10">
  </path>
  <path d="M 777.5 39 h 20 m 0 -10 v 20">
  </path>
 </g>
 <style>
  svg {
    width: 100%;
}

path {
    stroke-width: 3;
    stroke: black;
    fill: rgba(0,0,0,0);
}
text {
    font: bold 14px monospace;
    text-anchor: middle;
    fill: black;
}
text.diagram-text {
    font-size: 12px;
}
text.diagram-arrow {
    font-size: 16px;
}
text.label {
    text-anchor: start;
}
text.comment {
    font: italic 12px monospace;
}
g.special-sequence rect {
    fill: #ffe79a;
    stroke: black;
}
g.special-sequence text {
    font-style: italic;
}
rect {
    stroke-width: 3;
}
rect.group-box {
    stroke: gray;
    stroke-dasharray: 10 5;
    fill: none;
}
g.non-terminal rect {
    fill: #feffdf;
    stroke: black;
}
g.terminal rect {
    fill: #feffdf;
    stroke: black;
}
path.diagram-text {
    stroke-width: 3;
    stroke: black;
    fill: white;
    cursor: help;
}
g.diagram-text:hover path.diagram-text {
    fill: #eee;
}
 </style>
</svg>
