<svg class="railroad-diagram" height="198" viewbox="0 0 647 198" width="647" xmlns="http://www.w3.org/2000/svg">
 <g transform="translate(.5 .5)">
  <g>
   <path d="M20 21v20m0 -10h20">
   </path>
  </g>
  <g>
   <path d="M40 31h0">
   </path>
   <path d="M607 31h0">
   </path>
   <path d="M40 31h20">
   </path>
   <g>
    <path d="M60 31h157">
    </path>
    <path d="M430 31h157">
    </path>
    <g class="terminal">
     <path d="M217 31h0">
     </path>
     <path d="M262.5 31h0">
     </path>
     <rect height="22" rx="10" ry="10" width="45.5" x="217" y="20">
     </rect>
     <text x="239.75" y="35">
      MIN
     </text>
    </g>
    <path d="M262.5 31h10">
    </path>
    <path d="M272.5 31h10">
    </path>
    <g class="non-terminal">
     <path d="M282.5 31h0">
     </path>
     <path d="M430 31h0">
     </path>
     <rect height="22" width="147.5" x="282.5" y="20">
     </rect>
     <a>
      <text x="356.25" y="35">
       integer_literal
      </text>
     </a>
    </g>
   </g>
   <path d="M587 31h20">
   </path>
   <path d="M40 31a10 10 0 0 1 10 10v18a10 10 0 0 0 10 10">
   </path>
   <g>
    <path d="M60 69h142">
    </path>
    <path d="M445 69h142">
    </path>
    <g class="terminal">
     <path d="M202 69h0">
     </path>
     <path d="M247.5 69h0">
     </path>
     <rect height="22" rx="10" ry="10" width="45.5" x="202" y="58">
     </rect>
     <text x="224.75" y="73">
      MAX
     </text>
    </g>
    <path d="M247.5 69h10">
    </path>
    <g>
     <path d="M257.5 69h0">
     </path>
     <path d="M445 69h0">
     </path>
     <path d="M257.5 69a10 10 0 0 0 10 -10v0a10 10 0 0 1 10 -10">
     </path>
     <g>
      <path d="M277.5 49h147.5">
      </path>
     </g>
     <path d="M425 49a10 10 0 0 1 10 10v0a10 10 0 0 0 10 10">
     </path>
     <path d="M257.5 69h20">
     </path>
     <g class="non-terminal">
      <path d="M277.5 69h0">
      </path>
      <path d="M425 69h0">
      </path>
      <rect height="22" width="147.5" x="277.5" y="58">
      </rect>
      <a>
       <text x="351.25" y="73">
        integer_literal
       </text>
      </a>
     </g>
     <path d="M425 69h20">
     </path>
    </g>
   </g>
   <path d="M587 69a10 10 0 0 0 10 -10v-18a10 10 0 0 1 10 -10">
   </path>
   <path d="M40 31a10 10 0 0 1 10 10v48a10 10 0 0 0 10 10">
   </path>
   <g>
    <path d="M60 99h148.5">
    </path>
    <path d="M438.5 99h148.5">
    </path>
    <g class="terminal">
     <path d="M208.5 99h0">
     </path>
     <path d="M271 99h0">
     </path>
     <rect height="22" rx="10" ry="10" width="62.5" x="208.5" y="88">
     </rect>
     <text x="239.75" y="103">
      SCALE
     </text>
    </g>
    <path d="M271 99h10">
    </path>
    <path d="M281 99h10">
    </path>
    <g class="non-terminal">
     <path d="M291 99h0">
     </path>
     <path d="M438.5 99h0">
     </path>
     <rect height="22" width="147.5" x="291" y="88">
     </rect>
     <a>
      <text x="364.75" y="103">
       integer_literal
      </text>
     </a>
    </g>
   </g>
   <path d="M587 99a10 10 0 0 0 10 -10v-48a10 10 0 0 1 10 -10">
   </path>
   <path d="M40 31a10 10 0 0 1 10 10v86a10 10 0 0 0 10 10">
   </path>
   <g>
    <path d="M60 137h0">
    </path>
    <path d="M587 137h0">
    </path>
    <g class="terminal">
     <path d="M60 137h0">
     </path>
     <path d="M173.5 137h0">
     </path>
     <rect height="22" rx="10" ry="10" width="113.5" x="60" y="126">
     </rect>
     <text x="116.75" y="141">
      TIMEQUANTUM
     </text>
    </g>
    <path d="M173.5 137h10">
    </path>
    <path d="M183.5 137h10">
    </path>
    <g class="non-terminal">
     <path d="M193.5 137h0">
     </path>
     <path d="M332.5 137h0">
     </path>
     <rect height="22" width="139" x="193.5" y="126">
     </rect>
     <a>
      <text x="263" y="141">
       string_literal
      </text>
     </a>
    </g>
    <path d="M332.5 137h10">
    </path>
    <g>
     <path d="M342.5 137h0">
     </path>
     <path d="M587 137h0">
     </path>
     <path d="M342.5 137a10 10 0 0 0 10 -10v0a10 10 0 0 1 10 -10">
     </path>
     <g>
      <path d="M362.5 117h204.5">
      </path>
     </g>
     <path d="M567 117a10 10 0 0 1 10 10v0a10 10 0 0 0 10 10">
     </path>
     <path d="M342.5 137h20">
     </path>
     <g>
      <path d="M362.5 137h0">
      </path>
      <path d="M567 137h0">
      </path>
      <g class="terminal">
       <path d="M362.5 137h0">
       </path>
       <path d="M408 137h0">
       </path>
       <rect height="22" rx="10" ry="10" width="45.5" x="362.5" y="126">
       </rect>
       <text x="385.25" y="141">
        TTL
       </text>
      </g>
      <path d="M408 137h10">
      </path>
      <path d="M418 137h10">
      </path>
      <g class="non-terminal">
       <path d="M428 137h0">
       </path>
       <path d="M567 137h0">
       </path>
       <rect height="22" width="139" x="428" y="126">
       </rect>
       <a>
        <text x="497.5" y="141">
         string_literal
        </text>
       </a>
      </g>
     </g>
     <path d="M567 137h20">
     </path>
    </g>
   </g>
   <path d="M587 137a10 10 0 0 0 10 -10v-86a10 10 0 0 1 10 -10">
   </path>
   <path d="M40 31a10 10 0 0 1 10 10v116a10 10 0 0 0 10 10">
   </path>
   <g>
    <path d="M60 167h140">
    </path>
    <path d="M447 167h140">
    </path>
    <g class="terminal">
     <path d="M200 167h0">
     </path>
     <path d="M288 167h0">
     </path>
     <rect height="22" rx="10" ry="10" width="88" x="200" y="156">
     </rect>
     <text x="244" y="171">
      TIMEUNIT
     </text>
    </g>
    <path d="M288 167h10">
    </path>
    <path d="M298 167h10">
    </path>
    <g class="non-terminal">
     <path d="M308 167h0">
     </path>
     <path d="M447 167h0">
     </path>
     <rect height="22" width="139" x="308" y="156">
     </rect>
     <a>
      <text x="377.5" y="171">
       string_literal
      </text>
     </a>
    </g>
   </g>
   <path d="M587 167a10 10 0 0 0 10 -10v-116a10 10 0 0 1 10 -10">
   </path>
  </g>
  <path d="M 607 31 h 20 m 0 -10 v 20">
  </path>
 </g>
 <style>
  svg {
    width: 100%;
}

path {
    stroke-width: 3;
    stroke: black;
    fill: rgba(0,0,0,0);
}
text {
    font: bold 14px monospace;
    text-anchor: middle;
    fill: black;
}
text.diagram-text {
    font-size: 12px;
}
text.diagram-arrow {
    font-size: 16px;
}
text.label {
    text-anchor: start;
}
text.comment {
    font: italic 12px monospace;
}
g.special-sequence rect {
    fill: #ffe79a;
    stroke: black;
}
g.special-sequence text {
    font-style: italic;
}
rect {
    stroke-width: 3;
}
rect.group-box {
    stroke: gray;
    stroke-dasharray: 10 5;
    fill: none;
}
g.non-terminal rect {
    fill: #feffdf;
    stroke: black;
}
g.terminal rect {
    fill: #feffdf;
    stroke: black;
}
path.diagram-text {
    stroke-width: 3;
    stroke: black;
    fill: white;
    cursor: help;
}
g.diagram-text:hover path.diagram-text {
    fill: #eee;
}
 </style>
</svg>
