<svg class="railroad-diagram" height="87" viewbox="0 0 576 87" width="576" xmlns="http://www.w3.org/2000/svg">
 <g transform="translate(.5 .5)">
  <g>
   <path d="M20 37v20m0 -10h20">
   </path>
  </g>
  <g>
   <path d="M40 47h0">
   </path>
   <path d="M536 47h0">
   </path>
   <path d="M40 47a10 10 0 0 0 10 -10v-7a10 10 0 0 1 10 -10">
   </path>
   <g>
    <path d="M60 20h456">
    </path>
   </g>
   <path d="M516 20a10 10 0 0 1 10 10v7a10 10 0 0 0 10 10">
   </path>
   <path d="M40 47h20">
   </path>
   <g>
    <path d="M60 47h0">
    </path>
    <path d="M516 47h0">
    </path>
    <path d="M60 47h10">
    </path>
    <g>
     <path d="M70 47h0">
     </path>
     <path d="M506 47h0">
     </path>
     <g class="non-terminal">
      <path d="M70 47h0">
      </path>
      <path d="M175 47h0">
      </path>
      <rect height="22" width="105" x="70" y="36">
      </rect>
      <a>
       <text x="122.5" y="51">
        identifier
       </text>
      </a>
     </g>
     <path d="M175 47h10">
     </path>
     <path d="M185 47h10">
     </path>
     <g class="non-terminal">
      <path d="M195 47h0">
      </path>
      <path d="M291.5 47h0">
      </path>
      <rect height="22" width="96.5" x="195" y="36">
      </rect>
      <a>
       <text x="243.25" y="51">
        type_name
       </text>
      </a>
     </g>
     <path d="M291.5 47h10">
     </path>
     <g>
      <path d="M301.5 47h0">
      </path>
      <path d="M506 47h0">
      </path>
      <path d="M301.5 47a10 10 0 0 0 10 -10v0a10 10 0 0 1 10 -10">
      </path>
      <g>
       <path d="M321.5 27h164.5">
       </path>
      </g>
      <path d="M486 27a10 10 0 0 1 10 10v0a10 10 0 0 0 10 10">
      </path>
      <path d="M301.5 47h20">
      </path>
      <g class="non-terminal">
       <path d="M321.5 47h0">
       </path>
       <path d="M486 47h0">
       </path>
       <rect height="22" width="164.5" x="321.5" y="36">
       </rect>
       <a>
        <text x="403.75" y="51">
         column_constraint
        </text>
       </a>
      </g>
      <path d="M486 47h20">
      </path>
     </g>
    </g>
    <path d="M506 47h10">
    </path>
    <path d="M70 47a10 10 0 0 0 -10 10v0a10 10 0 0 0 10 10">
    </path>
    <g>
     <path d="M70 67h436">
     </path>
    </g>
    <path d="M506 67a10 10 0 0 0 10 -10v0a10 10 0 0 0 -10 -10">
    </path>
   </g>
   <path d="M516 47h20">
   </path>
  </g>
  <path d="M 536 47 h 20 m 0 -10 v 20">
  </path>
 </g>
 <style>
  svg {
    width: 100%;
}

path {
    stroke-width: 3;
    stroke: black;
    fill: rgba(0,0,0,0);
}
text {
    font: bold 14px monospace;
    text-anchor: middle;
    fill: black;
}
text.diagram-text {
    font-size: 12px;
}
text.diagram-arrow {
    font-size: 16px;
}
text.label {
    text-anchor: start;
}
text.comment {
    font: italic 12px monospace;
}
g.special-sequence rect {
    fill: #ffe79a;
    stroke: black;
}
g.special-sequence text {
    font-style: italic;
}
rect {
    stroke-width: 3;
}
rect.group-box {
    stroke: gray;
    stroke-dasharray: 10 5;
    fill: none;
}
g.non-terminal rect {
    fill: #feffdf;
    stroke: black;
}
g.terminal rect {
    fill: #feffdf;
    stroke: black;
}
path.diagram-text {
    stroke-width: 3;
    stroke: black;
    fill: white;
    cursor: help;
}
g.diagram-text:hover path.diagram-text {
    fill: #eee;
}
 </style>
</svg>
