<svg class="railroad-diagram" height="100" viewbox="0 0 1288 100" width="1288" xmlns="http://www.w3.org/2000/svg">
 <g transform="translate(.5 .5)">
  <g>
   <path d="M20 29v20m0 -10h20">
   </path>
  </g>
  <path d="M40 39h10">
  </path>
  <g>
   <path d="M50 39h0">
   </path>
   <path d="M1238 39h0">
   </path>
   <g class="terminal">
    <path d="M50 39h0">
    </path>
    <path d="M121 39h0">
    </path>
    <rect height="22" rx="10" ry="10" width="71" x="50" y="28">
    </rect>
    <text x="85.5" y="43">
     CREATE
    </text>
   </g>
   <path d="M121 39h10">
   </path>
   <path d="M131 39h10">
   </path>
   <g class="terminal">
    <path d="M141 39h0">
    </path>
    <path d="M203.5 39h0">
    </path>
    <rect height="22" rx="10" ry="10" width="62.5" x="141" y="28">
    </rect>
    <text x="172.25" y="43">
     TABLE
    </text>
   </g>
   <path d="M203.5 39h10">
   </path>
   <g>
    <path d="M213.5 39h0">
    </path>
    <path d="M447 39h0">
    </path>
    <path d="M213.5 39a10 10 0 0 0 10 -10v0a10 10 0 0 1 10 -10">
    </path>
    <g>
     <path d="M233.5 19h193.5">
     </path>
    </g>
    <path d="M427 19a10 10 0 0 1 10 10v0a10 10 0 0 0 10 10">
    </path>
    <path d="M213.5 39h20">
    </path>
    <g>
     <path d="M233.5 39h0">
     </path>
     <path d="M427 39h0">
     </path>
     <g class="terminal">
      <path d="M233.5 39h0">
      </path>
      <path d="M270.5 39h0">
      </path>
      <rect height="22" rx="10" ry="10" width="37" x="233.5" y="28">
      </rect>
      <text x="252" y="43">
       IF
      </text>
     </g>
     <path d="M270.5 39h10">
     </path>
     <path d="M280.5 39h10">
     </path>
     <g class="terminal">
      <path d="M290.5 39h0">
      </path>
      <path d="M336 39h0">
      </path>
      <rect height="22" rx="10" ry="10" width="45.5" x="290.5" y="28">
      </rect>
      <text x="313.25" y="43">
       NOT
      </text>
     </g>
     <path d="M336 39h10">
     </path>
     <path d="M346 39h10">
     </path>
     <g class="terminal">
      <path d="M356 39h0">
      </path>
      <path d="M427 39h0">
      </path>
      <rect height="22" rx="10" ry="10" width="71" x="356" y="28">
      </rect>
      <text x="391.5" y="43">
       EXISTS
      </text>
     </g>
    </g>
    <path d="M427 39h20">
    </path>
   </g>
   <path d="M447 39h10">
   </path>
   <g class="terminal">
    <path d="M457 39h0">
    </path>
    <path d="M485.5 39h0">
    </path>
    <rect height="22" rx="10" ry="10" width="28.5" x="457" y="28">
    </rect>
    <text x="471.25" y="43">
     (
    </text>
   </g>
   <path d="M485.5 39h10">
   </path>
   <path d="M495.5 39h10">
   </path>
   <g class="terminal">
    <path d="M505.5 39h0">
    </path>
    <path d="M551 39h0">
    </path>
    <rect height="22" rx="10" ry="10" width="45.5" x="505.5" y="28">
    </rect>
    <text x="528.25" y="43">
     _id
    </text>
   </g>
   <path d="M551 39h10">
   </path>
   <g>
    <path d="M561 39h0">
    </path>
    <path d="M672 39h0">
    </path>
    <path d="M561 39h20">
    </path>
    <g class="terminal">
     <path d="M581 39h17">
     </path>
     <path d="M635 39h17">
     </path>
     <rect height="22" rx="10" ry="10" width="37" x="598" y="28">
     </rect>
     <text x="616.5" y="43">
      ID
     </text>
    </g>
    <path d="M652 39h20">
    </path>
    <path d="M561 39a10 10 0 0 1 10 10v10a10 10 0 0 0 10 10">
    </path>
    <g class="terminal">
     <path d="M581 69h0">
     </path>
     <path d="M652 69h0">
     </path>
     <rect height="22" rx="10" ry="10" width="71" x="581" y="58">
     </rect>
     <text x="616.5" y="73">
      STRING
     </text>
    </g>
    <path d="M652 69a10 10 0 0 0 10 -10v-10a10 10 0 0 1 10 -10">
    </path>
   </g>
   <g>
    <path d="M672 39h0">
    </path>
    <path d="M837 39h0">
    </path>
    <path d="M672 39a10 10 0 0 0 10 -10v0a10 10 0 0 1 10 -10">
    </path>
    <g>
     <path d="M692 19h125">
     </path>
    </g>
    <path d="M817 19a10 10 0 0 1 10 10v0a10 10 0 0 0 10 10">
    </path>
    <path d="M672 39h20">
    </path>
    <g>
     <path d="M692 39h0">
     </path>
     <path d="M817 39h0">
     </path>
     <path d="M692 39h10">
     </path>
     <g class="non-terminal">
      <path d="M702 39h0">
      </path>
      <path d="M807 39h0">
      </path>
      <rect height="22" width="105" x="702" y="28">
      </rect>
      <a>
       <text x="754.5" y="43">
        column_def
       </text>
      </a>
     </g>
     <path d="M807 39h10">
     </path>
     <path d="M702 39a10 10 0 0 0 -10 10v0a10 10 0 0 0 10 10">
     </path>
     <g>
      <path d="M702 59h105">
      </path>
     </g>
     <path d="M807 59a10 10 0 0 0 10 -10v0a10 10 0 0 0 -10 -10">
     </path>
    </g>
    <path d="M817 39h20">
    </path>
   </g>
   <path d="M837 39h10">
   </path>
   <g class="terminal">
    <path d="M847 39h0">
    </path>
    <path d="M875.5 39h0">
    </path>
    <rect height="22" rx="10" ry="10" width="28.5" x="847" y="28">
    </rect>
    <text x="861.25" y="43">
     )
    </text>
   </g>
   <path d="M875.5 39h10">
   </path>
   <g>
    <path d="M885.5 39h0">
    </path>
    <path d="M1238 39h0">
    </path>
    <path d="M885.5 39a10 10 0 0 0 10 -10v0a10 10 0 0 1 10 -10">
    </path>
    <g>
     <path d="M905.5 19h312.5">
     </path>
    </g>
    <path d="M1218 19a10 10 0 0 1 10 10v0a10 10 0 0 0 10 10">
    </path>
    <path d="M885.5 39h20">
    </path>
    <g>
     <path d="M905.5 39h0">
     </path>
     <path d="M1218 39h0">
     </path>
     <g class="terminal">
      <path d="M905.5 39h0">
      </path>
      <path d="M959.5 39h0">
      </path>
      <rect height="22" rx="10" ry="10" width="54" x="905.5" y="28">
      </rect>
      <text x="932.5" y="43">
       WITH
      </text>
     </g>
     <path d="M959.5 39h10">
     </path>
     <path d="M969.5 39h10">
     </path>
     <g class="terminal">
      <path d="M979.5 39h0">
      </path>
      <path d="M1059 39h0">
      </path>
      <rect height="22" rx="10" ry="10" width="79.5" x="979.5" y="28">
      </rect>
      <text x="1019.25" y="43">
       COMMENT
      </text>
     </g>
     <path d="M1059 39h10">
     </path>
     <path d="M1069 39h10">
     </path>
     <g class="non-terminal">
      <path d="M1079 39h0">
      </path>
      <path d="M1218 39h0">
      </path>
      <rect height="22" width="139" x="1079" y="28">
      </rect>
      <a>
       <text x="1148.5" y="43">
        string_literal
       </text>
      </a>
     </g>
    </g>
    <path d="M1218 39h20">
    </path>
   </g>
  </g>
  <path d="M1238 39h10">
  </path>
  <path d="M 1248 39 h 20 m 0 -10 v 20">
  </path>
 </g>
 <style>
  svg {
    width: 100%;
}

path {
    stroke-width: 3;
    stroke: black;
    fill: rgba(0,0,0,0);
}
text {
    font: bold 14px monospace;
    text-anchor: middle;
    fill: black;
}
text.diagram-text {
    font-size: 12px;
}
text.diagram-arrow {
    font-size: 16px;
}
text.label {
    text-anchor: start;
}
text.comment {
    font: italic 12px monospace;
}
g.special-sequence rect {
    fill: #ffe79a;
    stroke: black;
}
g.special-sequence text {
    font-style: italic;
}
rect {
    stroke-width: 3;
}
rect.group-box {
    stroke: gray;
    stroke-dasharray: 10 5;
    fill: none;
}
g.non-terminal rect {
    fill: #feffdf;
    stroke: black;
}
g.terminal rect {
    fill: #feffdf;
    stroke: black;
}
path.diagram-text {
    stroke-width: 3;
    stroke: black;
    fill: white;
    cursor: help;
}
g.diagram-text:hover path.diagram-text {
    fill: #eee;
}
 </style>
</svg>
