<svg class="railroad-diagram" height="70" viewbox="0 0 390 70" width="390" xmlns="http://www.w3.org/2000/svg">
 <g transform="translate(.5 .5)">
  <g>
   <path d="M20 29v20m0 -10h20">
   </path>
  </g>
  <path d="M40 39h10">
  </path>
  <g>
   <path d="M50 39h0">
   </path>
   <path d="M340 39h0">
   </path>
   <g class="terminal">
    <path d="M50 39h0">
    </path>
    <path d="M104 39h0">
    </path>
    <rect height="22" rx="10" ry="10" width="54" x="50" y="28">
    </rect>
    <text x="77" y="43">
     DROP
    </text>
   </g>
   <path d="M104 39h10">
   </path>
   <g>
    <path d="M114 39h0">
    </path>
    <path d="M225 39h0">
    </path>
    <path d="M114 39a10 10 0 0 0 10 -10v0a10 10 0 0 1 10 -10">
    </path>
    <g>
     <path d="M134 19h71">
     </path>
    </g>
    <path d="M205 19a10 10 0 0 1 10 10v0a10 10 0 0 0 10 10">
    </path>
    <path d="M114 39h20">
    </path>
    <g class="terminal">
     <path d="M134 39h0">
     </path>
     <path d="M205 39h0">
     </path>
     <rect height="22" rx="10" ry="10" width="71" x="134" y="28">
     </rect>
     <text x="169.5" y="43">
      COLUMN
     </text>
    </g>
    <path d="M205 39h20">
    </path>
   </g>
   <path d="M225 39h10">
   </path>
   <g class="non-terminal">
    <path d="M235 39h0">
    </path>
    <path d="M340 39h0">
    </path>
    <rect height="22" width="105" x="235" y="28">
    </rect>
    <a>
     <text x="287.5" y="43">
      identifier
     </text>
    </a>
   </g>
  </g>
  <path d="M340 39h10">
  </path>
  <path d="M 350 39 h 20 m 0 -10 v 20">
  </path>
 </g>
 <style>
  svg {
    width: 100%;
}

path {
    stroke-width: 3;
    stroke: black;
    fill: rgba(0,0,0,0);
}
text {
    font: bold 14px monospace;
    text-anchor: middle;
    fill: black;
}
text.diagram-text {
    font-size: 12px;
}
text.diagram-arrow {
    font-size: 16px;
}
text.label {
    text-anchor: start;
}
text.comment {
    font: italic 12px monospace;
}
g.special-sequence rect {
    fill: #ffe79a;
    stroke: black;
}
g.special-sequence text {
    font-style: italic;
}
rect {
    stroke-width: 3;
}
rect.group-box {
    stroke: gray;
    stroke-dasharray: 10 5;
    fill: none;
}
g.non-terminal rect {
    fill: #feffdf;
    stroke: black;
}
g.terminal rect {
    fill: #feffdf;
    stroke: black;
}
path.diagram-text {
    stroke-width: 3;
    stroke: black;
    fill: white;
    cursor: help;
}
g.diagram-text:hover path.diagram-text {
    fill: #eee;
}
 </style>
</svg>
