<svg class="railroad-diagram" height="659" viewbox="0 0 680 659" width="680" xmlns="http://www.w3.org/2000/svg">
 <g transform="translate(.5 .5)">
  <g>
   <path d="M20 21v20m0 -10h20">
   </path>
  </g>
  <g>
   <path d="M40 31h0">
   </path>
   <path d="M640 31h0">
   </path>
   <path d="M40 31h20">
   </path>
   <g class="non-terminal">
    <path d="M60 31h206.25">
    </path>
    <path d="M413.75 31h206.25">
    </path>
    <rect height="22" width="147.5" x="266.25" y="20">
    </rect>
    <a>
     <text x="340" y="35">
      integer_literal
     </text>
    </a>
   </g>
   <path d="M620 31h20">
   </path>
   <path d="M40 31a10 10 0 0 1 10 10v10a10 10 0 0 0 10 10">
   </path>
   <g class="non-terminal">
    <path d="M60 61h210.5">
    </path>
    <path d="M409.5 61h210.5">
    </path>
    <rect height="22" width="139" x="270.5" y="50">
    </rect>
    <a>
     <text x="340" y="65">
      string_literal
     </text>
    </a>
   </g>
   <path d="M620 61a10 10 0 0 0 10 -10v-10a10 10 0 0 1 10 -10">
   </path>
   <path d="M40 31a10 10 0 0 1 10 10v40a10 10 0 0 0 10 10">
   </path>
   <g class="non-terminal">
    <path d="M60 91h206.25">
    </path>
    <path d="M413.75 91h206.25">
    </path>
    <rect height="22" width="147.5" x="266.25" y="80">
    </rect>
    <a>
     <text x="340" y="95">
      decimal_literal
     </text>
    </a>
   </g>
   <path d="M620 91a10 10 0 0 0 10 -10v-40a10 10 0 0 1 10 -10">
   </path>
   <path d="M40 31a10 10 0 0 1 10 10v70a10 10 0 0 0 10 10">
   </path>
   <g class="non-terminal">
    <path d="M60 121h223.25">
    </path>
    <path d="M396.75 121h223.25">
    </path>
    <rect height="22" width="113.5" x="283.25" y="110">
    </rect>
    <a>
     <text x="340" y="125">
      set_literal
     </text>
    </a>
   </g>
   <path d="M620 121a10 10 0 0 0 10 -10v-70a10 10 0 0 1 10 -10">
   </path>
   <path d="M40 31a10 10 0 0 1 10 10v100a10 10 0 0 0 10 10">
   </path>
   <g class="non-terminal">
    <path d="M60 151h214.75">
    </path>
    <path d="M405.25 151h214.75">
    </path>
    <rect height="22" width="130.5" x="274.75" y="140">
    </rect>
    <a>
     <text x="340" y="155">
      tuple_literal
     </text>
    </a>
   </g>
   <path d="M620 151a10 10 0 0 0 10 -10v-100a10 10 0 0 1 10 -10">
   </path>
   <path d="M40 31a10 10 0 0 1 10 10v130a10 10 0 0 0 10 10">
   </path>
   <g class="non-terminal">
    <path d="M60 181h219">
    </path>
    <path d="M401 181h219">
    </path>
    <rect height="22" width="122" x="279" y="170">
    </rect>
    <a>
     <text x="340" y="185">
      date_literal
     </text>
    </a>
   </g>
   <path d="M620 181a10 10 0 0 0 10 -10v-130a10 10 0 0 1 10 -10">
   </path>
   <path d="M40 31a10 10 0 0 1 10 10v168a10 10 0 0 0 10 10">
   </path>
   <g>
    <path d="M60 219h121.5">
    </path>
    <path d="M498.5 219h121.5">
    </path>
    <g>
     <path d="M181.5 219h0">
     </path>
     <path d="M375 219h0">
     </path>
     <path d="M181.5 219a10 10 0 0 0 10 -10v0a10 10 0 0 1 10 -10">
     </path>
     <g>
      <path d="M201.5 199h153.5">
      </path>
     </g>
     <path d="M355 199a10 10 0 0 1 10 10v0a10 10 0 0 0 10 10">
     </path>
     <path d="M181.5 219h20">
     </path>
     <g>
      <path d="M201.5 219h0">
      </path>
      <path d="M355 219h0">
      </path>
      <g class="non-terminal">
       <path d="M201.5 219h0">
       </path>
       <path d="M306.5 219h0">
       </path>
       <rect height="22" width="105" x="201.5" y="208">
       </rect>
       <a>
        <text x="254" y="223">
         table_name
        </text>
       </a>
      </g>
      <path d="M306.5 219h10">
      </path>
      <path d="M316.5 219h10">
      </path>
      <g class="terminal">
       <path d="M326.5 219h0">
       </path>
       <path d="M355 219h0">
       </path>
       <rect height="22" rx="10" ry="10" width="28.5" x="326.5" y="208">
       </rect>
       <text x="340.75" y="223">
        .
       </text>
      </g>
     </g>
     <path d="M355 219h20">
     </path>
    </g>
    <path d="M375 219h10">
    </path>
    <g class="non-terminal">
     <path d="M385 219h0">
     </path>
     <path d="M498.5 219h0">
     </path>
     <rect height="22" width="113.5" x="385" y="208">
     </rect>
     <a>
      <text x="441.75" y="223">
       column_name
      </text>
     </a>
    </g>
   </g>
   <path d="M620 219a10 10 0 0 0 10 -10v-168a10 10 0 0 1 10 -10">
   </path>
   <path d="M40 31a10 10 0 0 1 10 10v198a10 10 0 0 0 10 10">
   </path>
   <g>
    <path d="M60 249h199">
    </path>
    <path d="M421 249h199">
    </path>
    <g class="non-terminal">
     <path d="M259 249h0">
     </path>
     <path d="M347 249h0">
     </path>
     <rect height="22" width="88" x="259" y="238">
     </rect>
     <a>
      <text x="303" y="253">
       unary_op
      </text>
     </a>
    </g>
    <path d="M347 249h10">
    </path>
    <path d="M357 249h10">
    </path>
    <g class="non-terminal">
     <path d="M367 249h0">
     </path>
     <path d="M421 249h0">
     </path>
     <rect height="22" width="54" x="367" y="238">
     </rect>
     <a>
      <text x="394" y="253">
       expr
      </text>
     </a>
    </g>
   </g>
   <path d="M620 249a10 10 0 0 0 10 -10v-198a10 10 0 0 1 10 -10">
   </path>
   <path d="M40 31a10 10 0 0 1 10 10v228a10 10 0 0 0 10 10">
   </path>
   <g>
    <path d="M60 279h157.75">
    </path>
    <path d="M462.25 279h157.75">
    </path>
    <g class="non-terminal">
     <path d="M217.75 279h0">
     </path>
     <path d="M271.75 279h0">
     </path>
     <rect height="22" width="54" x="217.75" y="268">
     </rect>
     <a>
      <text x="244.75" y="283">
       expr
      </text>
     </a>
    </g>
    <path d="M271.75 279h10">
    </path>
    <path d="M281.75 279h10">
    </path>
    <g class="non-terminal">
     <path d="M291.75 279h0">
     </path>
     <path d="M388.25 279h0">
     </path>
     <rect height="22" width="96.5" x="291.75" y="268">
     </rect>
     <a>
      <text x="340" y="283">
       binary_op
      </text>
     </a>
    </g>
    <path d="M388.25 279h10">
    </path>
    <path d="M398.25 279h10">
    </path>
    <g class="non-terminal">
     <path d="M408.25 279h0">
     </path>
     <path d="M462.25 279h0">
     </path>
     <rect height="22" width="54" x="408.25" y="268">
     </rect>
     <a>
      <text x="435.25" y="283">
       expr
      </text>
     </a>
    </g>
   </g>
   <path d="M620 279a10 10 0 0 0 10 -10v-228a10 10 0 0 1 10 -10">
   </path>
   <path d="M40 31a10 10 0 0 1 10 10v258a10 10 0 0 0 10 10">
   </path>
   <g class="non-terminal">
    <path d="M60 309h214.75">
    </path>
    <path d="M405.25 309h214.75">
    </path>
    <rect height="22" width="130.5" x="274.75" y="298">
    </rect>
    <a>
     <text x="340" y="313">
      function_call
     </text>
    </a>
   </g>
   <path d="M620 309a10 10 0 0 0 10 -10v-258a10 10 0 0 1 10 -10">
   </path>
   <path d="M40 31a10 10 0 0 1 10 10v288a10 10 0 0 0 10 10">
   </path>
   <g>
    <path d="M60 339h204.5">
    </path>
    <path d="M415.5 339h204.5">
    </path>
    <g class="terminal">
     <path d="M264.5 339h0">
     </path>
     <path d="M293 339h0">
     </path>
     <rect height="22" rx="10" ry="10" width="28.5" x="264.5" y="328">
     </rect>
     <text x="278.75" y="343">
      (
     </text>
    </g>
    <path d="M293 339h10">
    </path>
    <path d="M303 339h10">
    </path>
    <g class="non-terminal">
     <path d="M313 339h0">
     </path>
     <path d="M367 339h0">
     </path>
     <rect height="22" width="54" x="313" y="328">
     </rect>
     <a>
      <text x="340" y="343">
       expr
      </text>
     </a>
    </g>
    <path d="M367 339h10">
    </path>
    <path d="M377 339h10">
    </path>
    <g class="terminal">
     <path d="M387 339h0">
     </path>
     <path d="M415.5 339h0">
     </path>
     <rect height="22" rx="10" ry="10" width="28.5" x="387" y="328">
     </rect>
     <text x="401.25" y="343">
      )
     </text>
    </g>
   </g>
   <path d="M620 339a10 10 0 0 0 10 -10v-288a10 10 0 0 1 10 -10">
   </path>
   <path d="M40 31a10 10 0 0 1 10 10v318a10 10 0 0 0 10 10">
   </path>
   <g>
    <path d="M60 369h80.75">
    </path>
    <path d="M539.25 369h80.75">
    </path>
    <g class="terminal">
     <path d="M140.75 369h0">
     </path>
     <path d="M194.75 369h0">
     </path>
     <rect height="22" rx="10" ry="10" width="54" x="140.75" y="358">
     </rect>
     <text x="167.75" y="373">
      CAST
     </text>
    </g>
    <path d="M194.75 369h10">
    </path>
    <path d="M204.75 369h10">
    </path>
    <g class="terminal">
     <path d="M214.75 369h0">
     </path>
     <path d="M243.25 369h0">
     </path>
     <rect height="22" rx="10" ry="10" width="28.5" x="214.75" y="358">
     </rect>
     <text x="229" y="373">
      (
     </text>
    </g>
    <path d="M243.25 369h10">
    </path>
    <path d="M253.25 369h10">
    </path>
    <g class="non-terminal">
     <path d="M263.25 369h0">
     </path>
     <path d="M317.25 369h0">
     </path>
     <rect height="22" width="54" x="263.25" y="358">
     </rect>
     <a>
      <text x="290.25" y="373">
       expr
      </text>
     </a>
    </g>
    <path d="M317.25 369h10">
    </path>
    <path d="M327.25 369h10">
    </path>
    <g class="terminal">
     <path d="M337.25 369h0">
     </path>
     <path d="M374.25 369h0">
     </path>
     <rect height="22" rx="10" ry="10" width="37" x="337.25" y="358">
     </rect>
     <text x="355.75" y="373">
      AS
     </text>
    </g>
    <path d="M374.25 369h10">
    </path>
    <path d="M384.25 369h10">
    </path>
    <g class="non-terminal">
     <path d="M394.25 369h0">
     </path>
     <path d="M490.75 369h0">
     </path>
     <rect height="22" width="96.5" x="394.25" y="358">
     </rect>
     <a>
      <text x="442.5" y="373">
       type_name
      </text>
     </a>
    </g>
    <path d="M490.75 369h10">
    </path>
    <path d="M500.75 369h10">
    </path>
    <g class="terminal">
     <path d="M510.75 369h0">
     </path>
     <path d="M539.25 369h0">
     </path>
     <rect height="22" rx="10" ry="10" width="28.5" x="510.75" y="358">
     </rect>
     <text x="525" y="373">
      )
     </text>
    </g>
   </g>
   <path d="M620 369a10 10 0 0 0 10 -10v-318a10 10 0 0 1 10 -10">
   </path>
   <path d="M40 31a10 10 0 0 1 10 10v356a10 10 0 0 0 10 10">
   </path>
   <g>
    <path d="M60 407h136.25">
    </path>
    <path d="M483.75 407h136.25">
    </path>
    <g class="non-terminal">
     <path d="M196.25 407h0">
     </path>
     <path d="M250.25 407h0">
     </path>
     <rect height="22" width="54" x="196.25" y="396">
     </rect>
     <a>
      <text x="223.25" y="411">
       expr
      </text>
     </a>
    </g>
    <path d="M250.25 407h10">
    </path>
    <g>
     <path d="M260.25 407h0">
     </path>
     <path d="M345.75 407h0">
     </path>
     <path d="M260.25 407a10 10 0 0 0 10 -10v0a10 10 0 0 1 10 -10">
     </path>
     <g>
      <path d="M280.25 387h45.5">
      </path>
     </g>
     <path d="M325.75 387a10 10 0 0 1 10 10v0a10 10 0 0 0 10 10">
     </path>
     <path d="M260.25 407h20">
     </path>
     <g class="terminal">
      <path d="M280.25 407h0">
      </path>
      <path d="M325.75 407h0">
      </path>
      <rect height="22" rx="10" ry="10" width="45.5" x="280.25" y="396">
      </rect>
      <text x="303" y="411">
       NOT
      </text>
     </g>
     <path d="M325.75 407h20">
     </path>
    </g>
    <path d="M345.75 407h10">
    </path>
    <g class="terminal">
     <path d="M355.75 407h0">
     </path>
     <path d="M409.75 407h0">
     </path>
     <rect height="22" rx="10" ry="10" width="54" x="355.75" y="396">
     </rect>
     <text x="382.75" y="411">
      LIKE
     </text>
    </g>
    <path d="M409.75 407h10">
    </path>
    <path d="M419.75 407h10">
    </path>
    <g class="non-terminal">
     <path d="M429.75 407h0">
     </path>
     <path d="M483.75 407h0">
     </path>
     <rect height="22" width="54" x="429.75" y="396">
     </rect>
     <a>
      <text x="456.75" y="411">
       expr
      </text>
     </a>
    </g>
   </g>
   <path d="M620 407a10 10 0 0 0 10 -10v-356a10 10 0 0 1 10 -10">
   </path>
   <path d="M40 31a10 10 0 0 1 10 10v394a10 10 0 0 0 10 10">
   </path>
   <g>
    <path d="M60 445h144.75">
    </path>
    <path d="M475.25 445h144.75">
    </path>
    <g class="non-terminal">
     <path d="M204.75 445h0">
     </path>
     <path d="M258.75 445h0">
     </path>
     <rect height="22" width="54" x="204.75" y="434">
     </rect>
     <a>
      <text x="231.75" y="449">
       expr
      </text>
     </a>
    </g>
    <path d="M258.75 445h10">
    </path>
    <path d="M268.75 445h10">
    </path>
    <g class="terminal">
     <path d="M278.75 445h0">
     </path>
     <path d="M315.75 445h0">
     </path>
     <rect height="22" rx="10" ry="10" width="37" x="278.75" y="434">
     </rect>
     <text x="297.25" y="449">
      IS
     </text>
    </g>
    <path d="M315.75 445h10">
    </path>
    <g>
     <path d="M325.75 445h0">
     </path>
     <path d="M411.25 445h0">
     </path>
     <path d="M325.75 445a10 10 0 0 0 10 -10v0a10 10 0 0 1 10 -10">
     </path>
     <g>
      <path d="M345.75 425h45.5">
      </path>
     </g>
     <path d="M391.25 425a10 10 0 0 1 10 10v0a10 10 0 0 0 10 10">
     </path>
     <path d="M325.75 445h20">
     </path>
     <g class="terminal">
      <path d="M345.75 445h0">
      </path>
      <path d="M391.25 445h0">
      </path>
      <rect height="22" rx="10" ry="10" width="45.5" x="345.75" y="434">
      </rect>
      <text x="368.5" y="449">
       NOT
      </text>
     </g>
     <path d="M391.25 445h20">
     </path>
    </g>
    <path d="M411.25 445h10">
    </path>
    <g class="terminal">
     <path d="M421.25 445h0">
     </path>
     <path d="M475.25 445h0">
     </path>
     <rect height="22" rx="10" ry="10" width="54" x="421.25" y="434">
     </rect>
     <text x="448.25" y="449">
      NULL
     </text>
    </g>
   </g>
   <path d="M620 445a10 10 0 0 0 10 -10v-394a10 10 0 0 1 10 -10">
   </path>
   <path d="M40 31a10 10 0 0 1 10 10v432a10 10 0 0 0 10 10">
   </path>
   <g>
    <path d="M60 483h53.75">
    </path>
    <path d="M566.25 483h53.75">
    </path>
    <g class="non-terminal">
     <path d="M113.75 483h0">
     </path>
     <path d="M167.75 483h0">
     </path>
     <rect height="22" width="54" x="113.75" y="472">
     </rect>
     <a>
      <text x="140.75" y="487">
       expr
      </text>
     </a>
    </g>
    <path d="M167.75 483h10">
    </path>
    <g>
     <path d="M177.75 483h0">
     </path>
     <path d="M263.25 483h0">
     </path>
     <path d="M177.75 483a10 10 0 0 0 10 -10v0a10 10 0 0 1 10 -10">
     </path>
     <g>
      <path d="M197.75 463h45.5">
      </path>
     </g>
     <path d="M243.25 463a10 10 0 0 1 10 10v0a10 10 0 0 0 10 10">
     </path>
     <path d="M177.75 483h20">
     </path>
     <g class="terminal">
      <path d="M197.75 483h0">
      </path>
      <path d="M243.25 483h0">
      </path>
      <rect height="22" rx="10" ry="10" width="45.5" x="197.75" y="472">
      </rect>
      <text x="220.5" y="487">
       NOT
      </text>
     </g>
     <path d="M243.25 483h20">
     </path>
    </g>
    <path d="M263.25 483h10">
    </path>
    <g class="terminal">
     <path d="M273.25 483h0">
     </path>
     <path d="M352.75 483h0">
     </path>
     <rect height="22" rx="10" ry="10" width="79.5" x="273.25" y="472">
     </rect>
     <text x="313" y="487">
      BETWEEN
     </text>
    </g>
    <path d="M352.75 483h10">
    </path>
    <path d="M362.75 483h10">
    </path>
    <g class="non-terminal">
     <path d="M372.75 483h0">
     </path>
     <path d="M426.75 483h0">
     </path>
     <rect height="22" width="54" x="372.75" y="472">
     </rect>
     <a>
      <text x="399.75" y="487">
       expr
      </text>
     </a>
    </g>
    <path d="M426.75 483h10">
    </path>
    <path d="M436.75 483h10">
    </path>
    <g class="terminal">
     <path d="M446.75 483h0">
     </path>
     <path d="M492.25 483h0">
     </path>
     <rect height="22" rx="10" ry="10" width="45.5" x="446.75" y="472">
     </rect>
     <text x="469.5" y="487">
      AND
     </text>
    </g>
    <path d="M492.25 483h10">
    </path>
    <path d="M502.25 483h10">
    </path>
    <g class="non-terminal">
     <path d="M512.25 483h0">
     </path>
     <path d="M566.25 483h0">
     </path>
     <rect height="22" width="54" x="512.25" y="472">
     </rect>
     <a>
      <text x="539.25" y="487">
       expr
      </text>
     </a>
    </g>
   </g>
   <path d="M620 483a10 10 0 0 0 10 -10v-432a10 10 0 0 1 10 -10">
   </path>
   <path d="M40 31a10 10 0 0 1 10 10v470a10 10 0 0 0 10 10">
   </path>
   <g>
    <path d="M60 521h0">
    </path>
    <path d="M620 521h0">
    </path>
    <g class="non-terminal">
     <path d="M60 521h0">
     </path>
     <path d="M114 521h0">
     </path>
     <rect height="22" width="54" x="60" y="510">
     </rect>
     <a>
      <text x="87" y="525">
       expr
      </text>
     </a>
    </g>
    <path d="M114 521h10">
    </path>
    <g>
     <path d="M124 521h0">
     </path>
     <path d="M209.5 521h0">
     </path>
     <path d="M124 521a10 10 0 0 0 10 -10v0a10 10 0 0 1 10 -10">
     </path>
     <g>
      <path d="M144 501h45.5">
      </path>
     </g>
     <path d="M189.5 501a10 10 0 0 1 10 10v0a10 10 0 0 0 10 10">
     </path>
     <path d="M124 521h20">
     </path>
     <g class="terminal">
      <path d="M144 521h0">
      </path>
      <path d="M189.5 521h0">
      </path>
      <rect height="22" rx="10" ry="10" width="45.5" x="144" y="510">
      </rect>
      <text x="166.75" y="525">
       NOT
      </text>
     </g>
     <path d="M189.5 521h20">
     </path>
    </g>
    <path d="M209.5 521h10">
    </path>
    <g class="terminal">
     <path d="M219.5 521h0">
     </path>
     <path d="M256.5 521h0">
     </path>
     <rect height="22" rx="10" ry="10" width="37" x="219.5" y="510">
     </rect>
     <text x="238" y="525">
      IN
     </text>
    </g>
    <path d="M256.5 521h10">
    </path>
    <path d="M266.5 521h10">
    </path>
    <g class="terminal">
     <path d="M276.5 521h0">
     </path>
     <path d="M305 521h0">
     </path>
     <rect height="22" rx="10" ry="10" width="28.5" x="276.5" y="510">
     </rect>
     <text x="290.75" y="525">
      (
     </text>
    </g>
    <path d="M305 521h10">
    </path>
    <g>
     <path d="M315 521h0">
     </path>
     <path d="M581.5 521h0">
     </path>
     <path d="M315 521h20">
     </path>
     <g class="non-terminal">
      <path d="M335 521h56.5">
      </path>
      <path d="M505 521h56.5">
      </path>
      <rect height="22" width="113.5" x="391.5" y="510">
      </rect>
      <a>
       <text x="448.25" y="525">
        select_stmt
       </text>
      </a>
     </g>
     <path d="M561.5 521h20">
     </path>
     <path d="M315 521a10 10 0 0 1 10 10v18a10 10 0 0 0 10 10">
     </path>
     <g>
      <path d="M335 559h0">
      </path>
      <path d="M561.5 559h0">
      </path>
      <g class="non-terminal">
       <path d="M335 559h0">
       </path>
       <path d="M389 559h0">
       </path>
       <rect height="22" width="54" x="335" y="548">
       </rect>
       <a>
        <text x="362" y="563">
         expr
        </text>
       </a>
      </g>
      <path d="M389 559h10">
      </path>
      <g>
       <path d="M399 559h0">
       </path>
       <path d="M561.5 559h0">
       </path>
       <path d="M399 559a10 10 0 0 0 10 -10v0a10 10 0 0 1 10 -10">
       </path>
       <g>
        <path d="M419 539h122.5">
        </path>
       </g>
       <path d="M541.5 539a10 10 0 0 1 10 10v0a10 10 0 0 0 10 10">
       </path>
       <path d="M399 559h20">
       </path>
       <g>
        <path d="M419 559h0">
        </path>
        <path d="M541.5 559h0">
        </path>
        <path d="M419 559h10">
        </path>
        <g>
         <path d="M429 559h0">
         </path>
         <path d="M531.5 559h0">
         </path>
         <g class="terminal">
          <path d="M429 559h0">
          </path>
          <path d="M457.5 559h0">
          </path>
          <rect height="22" rx="10" ry="10" width="28.5" x="429" y="548">
          </rect>
          <text x="443.25" y="563">
           ,
          </text>
         </g>
         <path d="M457.5 559h10">
         </path>
         <path d="M467.5 559h10">
         </path>
         <g class="non-terminal">
          <path d="M477.5 559h0">
          </path>
          <path d="M531.5 559h0">
          </path>
          <rect height="22" width="54" x="477.5" y="548">
          </rect>
          <a>
           <text x="504.5" y="563">
            expr
           </text>
          </a>
         </g>
        </g>
        <path d="M531.5 559h10">
        </path>
        <path d="M429 559a10 10 0 0 0 -10 10v0a10 10 0 0 0 10 10">
        </path>
        <g>
         <path d="M429 579h102.5">
         </path>
        </g>
        <path d="M531.5 579a10 10 0 0 0 10 -10v0a10 10 0 0 0 -10 -10">
        </path>
       </g>
       <path d="M541.5 559h20">
       </path>
      </g>
     </g>
     <path d="M561.5 559a10 10 0 0 0 10 -10v-18a10 10 0 0 1 10 -10">
     </path>
    </g>
    <path d="M581.5 521h10">
    </path>
    <g class="terminal">
     <path d="M591.5 521h0">
     </path>
     <path d="M620 521h0">
     </path>
     <rect height="22" rx="10" ry="10" width="28.5" x="591.5" y="510">
     </rect>
     <text x="605.75" y="525">
      )
     </text>
    </g>
   </g>
   <path d="M620 521a10 10 0 0 0 10 -10v-470a10 10 0 0 1 10 -10">
   </path>
   <path d="M40 31a10 10 0 0 1 10 10v547a10 10 0 0 0 10 10">
   </path>
   <g class="non-terminal">
    <path d="M60 598h197.75">
    </path>
    <path d="M422.25 598h197.75">
    </path>
    <rect height="22" width="164.5" x="257.75" y="587">
    </rect>
    <a>
     <text x="340" y="602">
      paren_select_stmt
     </text>
    </a>
   </g>
   <path d="M620 598a10 10 0 0 0 10 -10v-547a10 10 0 0 1 10 -10">
   </path>
   <path d="M40 31a10 10 0 0 1 10 10v577a10 10 0 0 0 10 10">
   </path>
   <g class="non-terminal">
    <path d="M60 628h231.75">
    </path>
    <path d="M388.25 628h231.75">
    </path>
    <rect height="22" width="96.5" x="291.75" y="617">
    </rect>
    <a>
     <text x="340" y="632">
      case_expr
     </text>
    </a>
   </g>
   <path d="M620 628a10 10 0 0 0 10 -10v-577a10 10 0 0 1 10 -10">
   </path>
  </g>
  <path d="M 640 31 h 20 m 0 -10 v 20">
  </path>
 </g>
 <style>
  svg {
    width: 100%;
}

path {
    stroke-width: 3;
    stroke: black;
    fill: rgba(0,0,0,0);
}
text {
    font: bold 14px monospace;
    text-anchor: middle;
    fill: black;
}
text.diagram-text {
    font-size: 12px;
}
text.diagram-arrow {
    font-size: 16px;
}
text.label {
    text-anchor: start;
}
text.comment {
    font: italic 12px monospace;
}
g.special-sequence rect {
    fill: #ffe79a;
    stroke: black;
}
g.special-sequence text {
    font-style: italic;
}
rect {
    stroke-width: 3;
}
rect.group-box {
    stroke: gray;
    stroke-dasharray: 10 5;
    fill: none;
}
g.non-terminal rect {
    fill: #feffdf;
    stroke: black;
}
g.terminal rect {
    fill: #feffdf;
    stroke: black;
}
path.diagram-text {
    stroke-width: 3;
    stroke: black;
    fill: white;
    cursor: help;
}
g.diagram-text:hover path.diagram-text {
    fill: #eee;
}
 </style>
</svg>
