<svg class="railroad-diagram" height="79" viewbox="0 0 621.5 79" width="621.5" xmlns="http://www.w3.org/2000/svg">
 <g transform="translate(.5 .5)">
  <g>
   <path d="M20 29v20m0 -10h20">
   </path>
  </g>
  <path d="M40 39h10">
  </path>
  <g>
   <path d="M50 39h0">
   </path>
   <path d="M571.5 39h0">
   </path>
   <g class="terminal">
    <path d="M50 39h0">
    </path>
    <path d="M104 39h0">
    </path>
    <rect height="22" rx="10" ry="10" width="54" x="50" y="28">
    </rect>
    <text x="77" y="43">
     FROM
    </text>
   </g>
   <path d="M104 39h10">
   </path>
   <path d="M114 39h10">
   </path>
   <g class="non-terminal">
    <path d="M124 39h0">
    </path>
    <path d="M288.5 39h0">
    </path>
    <rect height="22" width="164.5" x="124" y="28">
    </rect>
    <a>
     <text x="206.25" y="43">
      table_or_subquery
     </text>
    </a>
   </g>
   <path d="M288.5 39h10">
   </path>
   <g>
    <path d="M298.5 39h0">
    </path>
    <path d="M571.5 39h0">
    </path>
    <path d="M298.5 39a10 10 0 0 0 10 -10v0a10 10 0 0 1 10 -10">
    </path>
    <g>
     <path d="M318.5 19h233">
     </path>
    </g>
    <path d="M551.5 19a10 10 0 0 1 10 10v0a10 10 0 0 0 10 10">
    </path>
    <path d="M298.5 39h20">
    </path>
    <g>
     <path d="M318.5 39h0">
     </path>
     <path d="M551.5 39h0">
     </path>
     <path d="M318.5 39h10">
     </path>
     <g>
      <path d="M328.5 39h0">
      </path>
      <path d="M541.5 39h0">
      </path>
      <g class="terminal">
       <path d="M328.5 39h0">
       </path>
       <path d="M357 39h0">
       </path>
       <rect height="22" rx="10" ry="10" width="28.5" x="328.5" y="28">
       </rect>
       <text x="342.75" y="43">
        ,
       </text>
      </g>
      <path d="M357 39h10">
      </path>
      <path d="M367 39h10">
      </path>
      <g class="non-terminal">
       <path d="M377 39h0">
       </path>
       <path d="M541.5 39h0">
       </path>
       <rect height="22" width="164.5" x="377" y="28">
       </rect>
       <a>
        <text x="459.25" y="43">
         table_or_subquery
        </text>
       </a>
      </g>
     </g>
     <path d="M541.5 39h10">
     </path>
     <path d="M328.5 39a10 10 0 0 0 -10 10v0a10 10 0 0 0 10 10">
     </path>
     <g>
      <path d="M328.5 59h213">
      </path>
     </g>
     <path d="M541.5 59a10 10 0 0 0 10 -10v0a10 10 0 0 0 -10 -10">
     </path>
    </g>
    <path d="M551.5 39h20">
    </path>
   </g>
  </g>
  <path d="M571.5 39h10">
  </path>
  <path d="M 581.5 39 h 20 m 0 -10 v 20">
  </path>
 </g>
 <style>
  svg {
    width: 100%;
}

path {
    stroke-width: 3;
    stroke: black;
    fill: rgba(0,0,0,0);
}
text {
    font: bold 14px monospace;
    text-anchor: middle;
    fill: black;
}
text.diagram-text {
    font-size: 12px;
}
text.diagram-arrow {
    font-size: 16px;
}
text.label {
    text-anchor: start;
}
text.comment {
    font: italic 12px monospace;
}
g.special-sequence rect {
    fill: #ffe79a;
    stroke: black;
}
g.special-sequence text {
    font-style: italic;
}
rect {
    stroke-width: 3;
}
rect.group-box {
    stroke: gray;
    stroke-dasharray: 10 5;
    fill: none;
}
g.non-terminal rect {
    fill: #feffdf;
    stroke: black;
}
g.terminal rect {
    fill: #feffdf;
    stroke: black;
}
path.diagram-text {
    stroke-width: 3;
    stroke: black;
    fill: white;
    cursor: help;
}
g.diagram-text:hover path.diagram-text {
    fill: #eee;
}
 </style>
</svg>
