<svg class="railroad-diagram" height="79" viewbox="0 0 585 79" width="585" xmlns="http://www.w3.org/2000/svg">
 <g transform="translate(.5 .5)">
  <g>
   <path d="M20 29v20m0 -10h20">
   </path>
  </g>
  <path d="M40 39h10">
  </path>
  <g>
   <path d="M50 39h0">
   </path>
   <path d="M535 39h0">
   </path>
   <g class="terminal">
    <path d="M50 39h0">
    </path>
    <path d="M112.5 39h0">
    </path>
    <rect height="22" rx="10" ry="10" width="62.5" x="50" y="28">
    </rect>
    <text x="81.25" y="43">
     GROUP
    </text>
   </g>
   <path d="M112.5 39h10">
   </path>
   <path d="M122.5 39h10">
   </path>
   <g class="terminal">
    <path d="M132.5 39h0">
    </path>
    <path d="M169.5 39h0">
    </path>
    <rect height="22" rx="10" ry="10" width="37" x="132.5" y="28">
    </rect>
    <text x="151" y="43">
     BY
    </text>
   </g>
   <path d="M169.5 39h10">
   </path>
   <path d="M179.5 39h10">
   </path>
   <g class="non-terminal">
    <path d="M189.5 39h0">
    </path>
    <path d="M303 39h0">
    </path>
    <rect height="22" width="113.5" x="189.5" y="28">
    </rect>
    <a>
     <text x="246.25" y="43">
      column_expr
     </text>
    </a>
   </g>
   <path d="M303 39h10">
   </path>
   <g>
    <path d="M313 39h0">
    </path>
    <path d="M535 39h0">
    </path>
    <path d="M313 39a10 10 0 0 0 10 -10v0a10 10 0 0 1 10 -10">
    </path>
    <g>
     <path d="M333 19h182">
     </path>
    </g>
    <path d="M515 19a10 10 0 0 1 10 10v0a10 10 0 0 0 10 10">
    </path>
    <path d="M313 39h20">
    </path>
    <g>
     <path d="M333 39h0">
     </path>
     <path d="M515 39h0">
     </path>
     <path d="M333 39h10">
     </path>
     <g>
      <path d="M343 39h0">
      </path>
      <path d="M505 39h0">
      </path>
      <g class="terminal">
       <path d="M343 39h0">
       </path>
       <path d="M371.5 39h0">
       </path>
       <rect height="22" rx="10" ry="10" width="28.5" x="343" y="28">
       </rect>
       <text x="357.25" y="43">
        ,
       </text>
      </g>
      <path d="M371.5 39h10">
      </path>
      <path d="M381.5 39h10">
      </path>
      <g class="non-terminal">
       <path d="M391.5 39h0">
       </path>
       <path d="M505 39h0">
       </path>
       <rect height="22" width="113.5" x="391.5" y="28">
       </rect>
       <a>
        <text x="448.25" y="43">
         column_expr
        </text>
       </a>
      </g>
     </g>
     <path d="M505 39h10">
     </path>
     <path d="M343 39a10 10 0 0 0 -10 10v0a10 10 0 0 0 10 10">
     </path>
     <g>
      <path d="M343 59h162">
      </path>
     </g>
     <path d="M505 59a10 10 0 0 0 10 -10v0a10 10 0 0 0 -10 -10">
     </path>
    </g>
    <path d="M515 39h20">
    </path>
   </g>
  </g>
  <path d="M535 39h10">
  </path>
  <path d="M 545 39 h 20 m 0 -10 v 20">
  </path>
 </g>
 <style>
  svg {
    width: 100%;
}

path {
    stroke-width: 3;
    stroke: black;
    fill: rgba(0,0,0,0);
}
text {
    font: bold 14px monospace;
    text-anchor: middle;
    fill: black;
}
text.diagram-text {
    font-size: 12px;
}
text.diagram-arrow {
    font-size: 16px;
}
text.label {
    text-anchor: start;
}
text.comment {
    font: italic 12px monospace;
}
g.special-sequence rect {
    fill: #ffe79a;
    stroke: black;
}
g.special-sequence text {
    font-style: italic;
}
rect {
    stroke-width: 3;
}
rect.group-box {
    stroke: gray;
    stroke-dasharray: 10 5;
    fill: none;
}
g.non-terminal rect {
    fill: #feffdf;
    stroke: black;
}
g.terminal rect {
    fill: #feffdf;
    stroke: black;
}
path.diagram-text {
    stroke-width: 3;
    stroke: black;
    fill: white;
    cursor: help;
}
g.diagram-text:hover path.diagram-text {
    fill: #eee;
}
 </style>
</svg>
