<svg class="railroad-diagram" height="138" viewbox="0 0 352 138" width="352" xmlns="http://www.w3.org/2000/svg">
 <g transform="translate(.5 .5)">
  <g>
   <path d="M20 29v20m0 -10h20">
   </path>
  </g>
  <path d="M40 39h10">
  </path>
  <g>
   <path d="M50 39h0">
   </path>
   <path d="M302 39h0">
   </path>
   <g class="non-terminal">
    <path d="M50 39h0">
    </path>
    <path d="M121 39h0">
    </path>
    <rect height="22" width="71" x="50" y="28">
    </rect>
    <a>
     <text x="85.5" y="43">
      letter
     </text>
    </a>
   </g>
   <path d="M121 39h10">
   </path>
   <g>
    <path d="M131 39h0">
    </path>
    <path d="M302 39h0">
    </path>
    <path d="M131 39a10 10 0 0 0 10 -10v0a10 10 0 0 1 10 -10">
    </path>
    <g>
     <path d="M151 19h131">
     </path>
    </g>
    <path d="M282 19a10 10 0 0 1 10 10v0a10 10 0 0 0 10 10">
    </path>
    <path d="M131 39h20">
    </path>
    <g>
     <path d="M151 39h0">
     </path>
     <path d="M282 39h0">
     </path>
     <path d="M151 39h10">
     </path>
     <g>
      <path d="M161 39h0">
      </path>
      <path d="M272 39h0">
      </path>
      <path d="M161 39h20">
      </path>
      <g class="non-terminal">
       <path d="M181 39h0">
       </path>
       <path d="M252 39h0">
       </path>
       <rect height="22" width="71" x="181" y="28">
       </rect>
       <a>
        <text x="216.5" y="43">
         letter
        </text>
       </a>
      </g>
      <path d="M252 39h20">
      </path>
      <path d="M161 39a10 10 0 0 1 10 10v10a10 10 0 0 0 10 10">
      </path>
      <g class="non-terminal">
       <path d="M181 69h4.25">
       </path>
       <path d="M247.75 69h4.25">
       </path>
       <rect height="22" width="62.5" x="185.25" y="58">
       </rect>
       <a>
        <text x="216.5" y="73">
         digit
        </text>
       </a>
      </g>
      <path d="M252 69a10 10 0 0 0 10 -10v-10a10 10 0 0 1 10 -10">
      </path>
      <path d="M161 39a10 10 0 0 1 10 10v40a10 10 0 0 0 10 10">
      </path>
      <g class="terminal">
       <path d="M181 99h21.25">
       </path>
       <path d="M230.75 99h21.25">
       </path>
       <rect height="22" rx="10" ry="10" width="28.5" x="202.25" y="88">
       </rect>
       <text x="216.5" y="103">
        _
       </text>
      </g>
      <path d="M252 99a10 10 0 0 0 10 -10v-40a10 10 0 0 1 10 -10">
      </path>
     </g>
     <path d="M272 39h10">
     </path>
     <path d="M161 39a10 10 0 0 0 -10 10v59a10 10 0 0 0 10 10">
     </path>
     <g>
      <path d="M161 118h111">
      </path>
     </g>
     <path d="M272 118a10 10 0 0 0 10 -10v-59a10 10 0 0 0 -10 -10">
     </path>
    </g>
    <path d="M282 39h20">
    </path>
   </g>
  </g>
  <path d="M302 39h10">
  </path>
  <path d="M 312 39 h 20 m 0 -10 v 20">
  </path>
 </g>
 <style>
  svg {
    width: 100%;
}

path {
    stroke-width: 3;
    stroke: black;
    fill: rgba(0,0,0,0);
}
text {
    font: bold 14px monospace;
    text-anchor: middle;
    fill: black;
}
text.diagram-text {
    font-size: 12px;
}
text.diagram-arrow {
    font-size: 16px;
}
text.label {
    text-anchor: start;
}
text.comment {
    font: italic 12px monospace;
}
g.special-sequence rect {
    fill: #ffe79a;
    stroke: black;
}
g.special-sequence text {
    font-style: italic;
}
rect {
    stroke-width: 3;
}
rect.group-box {
    stroke: gray;
    stroke-dasharray: 10 5;
    fill: none;
}
g.non-terminal rect {
    fill: #feffdf;
    stroke: black;
}
g.terminal rect {
    fill: #feffdf;
    stroke: black;
}
path.diagram-text {
    stroke-width: 3;
    stroke: black;
    fill: white;
    cursor: help;
}
g.diagram-text:hover path.diagram-text {
    fill: #eee;
}
 </style>
</svg>
