<svg class="railroad-diagram" height="79" viewbox="0 0 583.5 79" width="583.5" xmlns="http://www.w3.org/2000/svg">
 <g transform="translate(.5 .5)">
  <g>
   <path d="M20 29v20m0 -10h20">
   </path>
  </g>
  <path d="M40 39h10">
  </path>
  <g>
   <path d="M50 39h0">
   </path>
   <path d="M533.5 39h0">
   </path>
   <g class="terminal">
    <path d="M50 39h0">
    </path>
    <path d="M78.5 39h0">
    </path>
    <rect height="22" rx="10" ry="10" width="28.5" x="50" y="28">
    </rect>
    <text x="64.25" y="43">
     (
    </text>
   </g>
   <path d="M78.5 39h10">
   </path>
   <path d="M88.5 39h10">
   </path>
   <g class="non-terminal">
    <path d="M98.5 39h0">
    </path>
    <path d="M237.5 39h0">
    </path>
    <rect height="22" width="139" x="98.5" y="28">
    </rect>
    <a>
     <text x="168" y="43">
      expr type_name
     </text>
    </a>
   </g>
   <path d="M237.5 39h10">
   </path>
   <g>
    <path d="M247.5 39h0">
    </path>
    <path d="M495 39h0">
    </path>
    <path d="M247.5 39a10 10 0 0 0 10 -10v0a10 10 0 0 1 10 -10">
    </path>
    <g>
     <path d="M267.5 19h207.5">
     </path>
    </g>
    <path d="M475 19a10 10 0 0 1 10 10v0a10 10 0 0 0 10 10">
    </path>
    <path d="M247.5 39h20">
    </path>
    <g>
     <path d="M267.5 39h0">
     </path>
     <path d="M475 39h0">
     </path>
     <path d="M267.5 39h10">
     </path>
     <g>
      <path d="M277.5 39h0">
      </path>
      <path d="M465 39h0">
      </path>
      <g class="terminal">
       <path d="M277.5 39h0">
       </path>
       <path d="M306 39h0">
       </path>
       <rect height="22" rx="10" ry="10" width="28.5" x="277.5" y="28">
       </rect>
       <text x="291.75" y="43">
        ,
       </text>
      </g>
      <path d="M306 39h10">
      </path>
      <path d="M316 39h10">
      </path>
      <g class="non-terminal">
       <path d="M326 39h0">
       </path>
       <path d="M465 39h0">
       </path>
       <rect height="22" width="139" x="326" y="28">
       </rect>
       <a>
        <text x="395.5" y="43">
         expr type_name
        </text>
       </a>
      </g>
     </g>
     <path d="M465 39h10">
     </path>
     <path d="M277.5 39a10 10 0 0 0 -10 10v0a10 10 0 0 0 10 10">
     </path>
     <g>
      <path d="M277.5 59h187.5">
      </path>
     </g>
     <path d="M465 59a10 10 0 0 0 10 -10v0a10 10 0 0 0 -10 -10">
     </path>
    </g>
    <path d="M475 39h20">
    </path>
   </g>
   <path d="M495 39h10">
   </path>
   <g class="terminal">
    <path d="M505 39h0">
    </path>
    <path d="M533.5 39h0">
    </path>
    <rect height="22" rx="10" ry="10" width="28.5" x="505" y="28">
    </rect>
    <text x="519.25" y="43">
     )
    </text>
   </g>
  </g>
  <path d="M533.5 39h10">
  </path>
  <path d="M 543.5 39 h 20 m 0 -10 v 20">
  </path>
 </g>
 <style>
  svg {
    width: 100%;
}

path {
    stroke-width: 3;
    stroke: black;
    fill: rgba(0,0,0,0);
}
text {
    font: bold 14px monospace;
    text-anchor: middle;
    fill: black;
}
text.diagram-text {
    font-size: 12px;
}
text.diagram-arrow {
    font-size: 16px;
}
text.label {
    text-anchor: start;
}
text.comment {
    font: italic 12px monospace;
}
g.special-sequence rect {
    fill: #ffe79a;
    stroke: black;
}
g.special-sequence text {
    font-style: italic;
}
rect {
    stroke-width: 3;
}
rect.group-box {
    stroke: gray;
    stroke-dasharray: 10 5;
    fill: none;
}
g.non-terminal rect {
    fill: #feffdf;
    stroke: black;
}
g.terminal rect {
    fill: #feffdf;
    stroke: black;
}
path.diagram-text {
    stroke-width: 3;
    stroke: black;
    fill: white;
    cursor: help;
}
g.diagram-text:hover path.diagram-text {
    fill: #eee;
}
 </style>
</svg>
