<svg class="railroad-diagram" height="70" viewbox="0 0 1448.5 70" width="1448.5" xmlns="http://www.w3.org/2000/svg">
 <g transform="translate(.5 .5)">
  <g>
   <path d="M20 29v20m0 -10h20">
   </path>
  </g>
  <path d="M40 39h10">
  </path>
  <g>
   <path d="M50 39h0">
   </path>
   <path d="M1398.5 39h0">
   </path>
   <g class="terminal">
    <path d="M50 39h0">
    </path>
    <path d="M121 39h0">
    </path>
    <rect height="22" rx="10" ry="10" width="71" x="50" y="28">
    </rect>
    <text x="85.5" y="43">
     SELECT
    </text>
   </g>
   <path d="M121 39h10">
   </path>
   <g>
    <path d="M131 39h0">
    </path>
    <path d="M259 39h0">
    </path>
    <path d="M131 39a10 10 0 0 0 10 -10v0a10 10 0 0 1 10 -10">
    </path>
    <g>
     <path d="M151 19h88">
     </path>
    </g>
    <path d="M239 19a10 10 0 0 1 10 10v0a10 10 0 0 0 10 10">
    </path>
    <path d="M131 39h20">
    </path>
    <g class="terminal">
     <path d="M151 39h0">
     </path>
     <path d="M239 39h0">
     </path>
     <rect height="22" rx="10" ry="10" width="88" x="151" y="28">
     </rect>
     <text x="195" y="43">
      DISTINCT
     </text>
    </g>
    <path d="M239 39h20">
    </path>
   </g>
   <g>
    <path d="M259 39h0">
    </path>
    <path d="M404 39h0">
    </path>
    <path d="M259 39a10 10 0 0 0 10 -10v0a10 10 0 0 1 10 -10">
    </path>
    <g>
     <path d="M279 19h105">
     </path>
    </g>
    <path d="M384 19a10 10 0 0 1 10 10v0a10 10 0 0 0 10 10">
    </path>
    <path d="M259 39h20">
    </path>
    <g class="non-terminal">
     <path d="M279 39h0">
     </path>
     <path d="M384 39h0">
     </path>
     <rect height="22" width="105" x="279" y="28">
     </rect>
     <a>
      <text x="331.5" y="43">
       top_clause
      </text>
     </a>
    </g>
    <path d="M384 39h20">
    </path>
   </g>
   <path d="M404 39h10">
   </path>
   <g class="non-terminal">
    <path d="M414 39h0">
    </path>
    <path d="M527.5 39h0">
    </path>
    <rect height="22" width="113.5" x="414" y="28">
    </rect>
    <a>
     <text x="470.75" y="43">
      select_list
     </text>
    </a>
   </g>
   <path d="M527.5 39h10">
   </path>
   <g>
    <path d="M537.5 39h0">
    </path>
    <path d="M691 39h0">
    </path>
    <path d="M537.5 39a10 10 0 0 0 10 -10v0a10 10 0 0 1 10 -10">
    </path>
    <g>
     <path d="M557.5 19h113.5">
     </path>
    </g>
    <path d="M671 19a10 10 0 0 1 10 10v0a10 10 0 0 0 10 10">
    </path>
    <path d="M537.5 39h20">
    </path>
    <g class="non-terminal">
     <path d="M557.5 39h0">
     </path>
     <path d="M671 39h0">
     </path>
     <rect height="22" width="113.5" x="557.5" y="28">
     </rect>
     <a>
      <text x="614.25" y="43">
       from_clause
      </text>
     </a>
    </g>
    <path d="M671 39h20">
    </path>
   </g>
   <g>
    <path d="M691 39h0">
    </path>
    <path d="M853 39h0">
    </path>
    <path d="M691 39a10 10 0 0 0 10 -10v0a10 10 0 0 1 10 -10">
    </path>
    <g>
     <path d="M711 19h122">
     </path>
    </g>
    <path d="M833 19a10 10 0 0 1 10 10v0a10 10 0 0 0 10 10">
    </path>
    <path d="M691 39h20">
    </path>
    <g class="non-terminal">
     <path d="M711 39h0">
     </path>
     <path d="M833 39h0">
     </path>
     <rect height="22" width="122" x="711" y="28">
     </rect>
     <a>
      <text x="772" y="43">
       where_clause
      </text>
     </a>
    </g>
    <path d="M833 39h20">
    </path>
   </g>
   <g>
    <path d="M853 39h0">
    </path>
    <path d="M1040.5 39h0">
    </path>
    <path d="M853 39a10 10 0 0 0 10 -10v0a10 10 0 0 1 10 -10">
    </path>
    <g>
     <path d="M873 19h147.5">
     </path>
    </g>
    <path d="M1020.5 19a10 10 0 0 1 10 10v0a10 10 0 0 0 10 10">
    </path>
    <path d="M853 39h20">
    </path>
    <g class="non-terminal">
     <path d="M873 39h0">
     </path>
     <path d="M1020.5 39h0">
     </path>
     <rect height="22" width="147.5" x="873" y="28">
     </rect>
     <a>
      <text x="946.75" y="43">
       group_by_clause
      </text>
     </a>
    </g>
    <path d="M1020.5 39h20">
    </path>
   </g>
   <g>
    <path d="M1040.5 39h0">
    </path>
    <path d="M1211 39h0">
    </path>
    <path d="M1040.5 39a10 10 0 0 0 10 -10v0a10 10 0 0 1 10 -10">
    </path>
    <g>
     <path d="M1060.5 19h130.5">
     </path>
    </g>
    <path d="M1191 19a10 10 0 0 1 10 10v0a10 10 0 0 0 10 10">
    </path>
    <path d="M1040.5 39h20">
    </path>
    <g class="non-terminal">
     <path d="M1060.5 39h0">
     </path>
     <path d="M1191 39h0">
     </path>
     <rect height="22" width="130.5" x="1060.5" y="28">
     </rect>
     <a>
      <text x="1125.75" y="43">
       having_clause
      </text>
     </a>
    </g>
    <path d="M1191 39h20">
    </path>
   </g>
   <g>
    <path d="M1211 39h0">
    </path>
    <path d="M1398.5 39h0">
    </path>
    <path d="M1211 39a10 10 0 0 0 10 -10v0a10 10 0 0 1 10 -10">
    </path>
    <g>
     <path d="M1231 19h147.5">
     </path>
    </g>
    <path d="M1378.5 19a10 10 0 0 1 10 10v0a10 10 0 0 0 10 10">
    </path>
    <path d="M1211 39h20">
    </path>
    <g class="non-terminal">
     <path d="M1231 39h0">
     </path>
     <path d="M1378.5 39h0">
     </path>
     <rect height="22" width="147.5" x="1231" y="28">
     </rect>
     <a>
      <text x="1304.75" y="43">
       order_by_clause
      </text>
     </a>
    </g>
    <path d="M1378.5 39h20">
    </path>
   </g>
  </g>
  <path d="M1398.5 39h10">
  </path>
  <path d="M 1408.5 39 h 20 m 0 -10 v 20">
  </path>
 </g>
 <style>
  svg {
    width: 100%;
}

path {
    stroke-width: 3;
    stroke: black;
    fill: rgba(0,0,0,0);
}
text {
    font: bold 14px monospace;
    text-anchor: middle;
    fill: black;
}
text.diagram-text {
    font-size: 12px;
}
text.diagram-arrow {
    font-size: 16px;
}
text.label {
    text-anchor: start;
}
text.comment {
    font: italic 12px monospace;
}
g.special-sequence rect {
    fill: #ffe79a;
    stroke: black;
}
g.special-sequence text {
    font-style: italic;
}
rect {
    stroke-width: 3;
}
rect.group-box {
    stroke: gray;
    stroke-dasharray: 10 5;
    fill: none;
}
g.non-terminal rect {
    fill: #feffdf;
    stroke: black;
}
g.terminal rect {
    fill: #feffdf;
    stroke: black;
}
path.diagram-text {
    stroke-width: 3;
    stroke: black;
    fill: white;
    cursor: help;
}
g.diagram-text:hover path.diagram-text {
    fill: #eee;
}
 </style>
</svg>
