<svg class="railroad-diagram" height="138" viewbox="0 0 433 138" width="433" xmlns="http://www.w3.org/2000/svg">
 <g transform="translate(.5 .5)">
  <g>
   <path d="M20 37v20m0 -10h20">
   </path>
  </g>
  <g>
   <path d="M40 47h0">
   </path>
   <path d="M393 47h0">
   </path>
   <path d="M40 47h20">
   </path>
   <g>
    <path d="M60 47h0">
    </path>
    <path d="M373 47h0">
    </path>
    <g class="non-terminal">
     <path d="M60 47h0">
     </path>
     <path d="M114 47h0">
     </path>
     <rect height="22" width="54" x="60" y="36">
     </rect>
     <a>
      <text x="87" y="51">
       expr
      </text>
     </a>
    </g>
    <path d="M114 47h10">
    </path>
    <g>
     <path d="M124 47h0">
     </path>
     <path d="M373 47h0">
     </path>
     <path d="M124 47a10 10 0 0 0 10 -10v-7a10 10 0 0 1 10 -10">
     </path>
     <g>
      <path d="M144 20h209">
      </path>
     </g>
     <path d="M353 20a10 10 0 0 1 10 10v7a10 10 0 0 0 10 10">
     </path>
     <path d="M124 47h20">
     </path>
     <g>
      <path d="M144 47h0">
      </path>
      <path d="M353 47h0">
      </path>
      <g>
       <path d="M144 47h0">
       </path>
       <path d="M221 47h0">
       </path>
       <path d="M144 47a10 10 0 0 0 10 -10v0a10 10 0 0 1 10 -10">
       </path>
       <g>
        <path d="M164 27h37">
        </path>
       </g>
       <path d="M201 27a10 10 0 0 1 10 10v0a10 10 0 0 0 10 10">
       </path>
       <path d="M144 47h20">
       </path>
       <g class="terminal">
        <path d="M164 47h0">
        </path>
        <path d="M201 47h0">
        </path>
        <rect height="22" rx="10" ry="10" width="37" x="164" y="36">
        </rect>
        <text x="182.5" y="51">
         AS
        </text>
       </g>
       <path d="M201 47h20">
       </path>
      </g>
      <path d="M221 47h10">
      </path>
      <g class="non-terminal">
       <path d="M231 47h0">
       </path>
       <path d="M353 47h0">
       </path>
       <rect height="22" width="122" x="231" y="36">
       </rect>
       <a>
        <text x="292" y="51">
         column_alias
        </text>
       </a>
      </g>
     </g>
     <path d="M353 47h20">
     </path>
    </g>
   </g>
   <path d="M373 47h20">
   </path>
   <path d="M40 47a10 10 0 0 1 10 10v10a10 10 0 0 0 10 10">
   </path>
   <g class="terminal">
    <path d="M60 77h142.25">
    </path>
    <path d="M230.75 77h142.25">
    </path>
    <rect height="22" rx="10" ry="10" width="28.5" x="202.25" y="66">
    </rect>
    <text x="216.5" y="81">
     *
    </text>
   </g>
   <path d="M373 77a10 10 0 0 0 10 -10v-10a10 10 0 0 1 10 -10">
   </path>
   <path d="M40 47a10 10 0 0 1 10 10v40a10 10 0 0 0 10 10">
   </path>
   <g>
    <path d="M60 107h59.75">
    </path>
    <path d="M313.25 107h59.75">
    </path>
    <g class="non-terminal">
     <path d="M119.75 107h0">
     </path>
     <path d="M216.25 107h0">
     </path>
     <rect height="22" width="96.5" x="119.75" y="96">
     </rect>
     <a>
      <text x="168" y="111">
       qualifier
      </text>
     </a>
    </g>
    <path d="M216.25 107h10">
    </path>
    <path d="M226.25 107h10">
    </path>
    <g class="terminal">
     <path d="M236.25 107h0">
     </path>
     <path d="M264.75 107h0">
     </path>
     <rect height="22" rx="10" ry="10" width="28.5" x="236.25" y="96">
     </rect>
     <text x="250.5" y="111">
      .
     </text>
    </g>
    <path d="M264.75 107h10">
    </path>
    <path d="M274.75 107h10">
    </path>
    <g class="terminal">
     <path d="M284.75 107h0">
     </path>
     <path d="M313.25 107h0">
     </path>
     <rect height="22" rx="10" ry="10" width="28.5" x="284.75" y="96">
     </rect>
     <text x="299" y="111">
      *
     </text>
    </g>
   </g>
   <path d="M373 107a10 10 0 0 0 10 -10v-40a10 10 0 0 1 10 -10">
   </path>
  </g>
  <path d="M 393 47 h 20 m 0 -10 v 20">
  </path>
 </g>
 <style>
  svg {
    width: 100%;
}

path {
    stroke-width: 3;
    stroke: black;
    fill: rgba(0,0,0,0);
}
text {
    font: bold 14px monospace;
    text-anchor: middle;
    fill: black;
}
text.diagram-text {
    font-size: 12px;
}
text.diagram-arrow {
    font-size: 16px;
}
text.label {
    text-anchor: start;
}
text.comment {
    font: italic 12px monospace;
}
g.special-sequence rect {
    fill: #ffe79a;
    stroke: black;
}
g.special-sequence text {
    font-style: italic;
}
rect {
    stroke-width: 3;
}
rect.group-box {
    stroke: gray;
    stroke-dasharray: 10 5;
    fill: none;
}
g.non-terminal rect {
    fill: #feffdf;
    stroke: black;
}
g.terminal rect {
    fill: #feffdf;
    stroke: black;
}
path.diagram-text {
    stroke-width: 3;
    stroke: black;
    fill: white;
    cursor: help;
}
g.diagram-text:hover path.diagram-text {
    fill: #eee;
}
 </style>
</svg>
