<svg class="railroad-diagram" height="482" viewbox="0 0 284.5 482" width="284.5" xmlns="http://www.w3.org/2000/svg">
 <g transform="translate(.5 .5)">
  <g>
   <path d="M20 21v20m0 -10h20">
   </path>
  </g>
  <g>
   <path d="M40 31h0">
   </path>
   <path d="M244.5 31h0">
   </path>
   <path d="M40 31h20">
   </path>
   <g class="non-terminal">
    <path d="M60 31h0">
    </path>
    <path d="M224.5 31h0">
    </path>
    <rect height="22" width="164.5" x="60" y="20">
    </rect>
    <a>
     <text x="142.25" y="35">
      create_table_stmt
     </text>
    </a>
   </g>
   <path d="M224.5 31h20">
   </path>
   <path d="M40 31a10 10 0 0 1 10 10v10a10 10 0 0 0 10 10">
   </path>
   <g class="non-terminal">
    <path d="M60 61h4.25">
    </path>
    <path d="M220.25 61h4.25">
    </path>
    <rect height="22" width="156" x="64.25" y="50">
    </rect>
    <a>
     <text x="142.25" y="65">
      alter_table_stmt
     </text>
    </a>
   </g>
   <path d="M224.5 61a10 10 0 0 0 10 -10v-10a10 10 0 0 1 10 -10">
   </path>
   <path d="M40 31a10 10 0 0 1 10 10v40a10 10 0 0 0 10 10">
   </path>
   <g class="non-terminal">
    <path d="M60 91h4.25">
    </path>
    <path d="M220.25 91h4.25">
    </path>
    <rect height="22" width="156" x="64.25" y="80">
    </rect>
    <a>
     <text x="142.25" y="95">
      create_view_stmt
     </text>
    </a>
   </g>
   <path d="M224.5 91a10 10 0 0 0 10 -10v-40a10 10 0 0 1 10 -10">
   </path>
   <path d="M40 31a10 10 0 0 1 10 10v70a10 10 0 0 0 10 10">
   </path>
   <g class="non-terminal">
    <path d="M60 121h25.5">
    </path>
    <path d="M199 121h25.5">
    </path>
    <rect height="22" width="113.5" x="85.5" y="110">
    </rect>
    <a>
     <text x="142.25" y="125">
      insert_stmt
     </text>
    </a>
   </g>
   <path d="M224.5 121a10 10 0 0 0 10 -10v-70a10 10 0 0 1 10 -10">
   </path>
   <path d="M40 31a10 10 0 0 1 10 10v100a10 10 0 0 0 10 10">
   </path>
   <g class="non-terminal">
    <path d="M60 151h4.25">
    </path>
    <path d="M220.25 151h4.25">
    </path>
    <rect height="22" width="156" x="64.25" y="140">
    </rect>
    <a>
     <text x="142.25" y="155">
      bulk_insert_stmt
     </text>
    </a>
   </g>
   <path d="M224.5 151a10 10 0 0 0 10 -10v-100a10 10 0 0 1 10 -10">
   </path>
   <path d="M40 31a10 10 0 0 1 10 10v130a10 10 0 0 0 10 10">
   </path>
   <g class="non-terminal">
    <path d="M60 181h25.5">
    </path>
    <path d="M199 181h25.5">
    </path>
    <rect height="22" width="113.5" x="85.5" y="170">
    </rect>
    <a>
     <text x="142.25" y="185">
      select_stmt
     </text>
    </a>
   </g>
   <path d="M224.5 181a10 10 0 0 0 10 -10v-130a10 10 0 0 1 10 -10">
   </path>
   <path d="M40 31a10 10 0 0 1 10 10v160a10 10 0 0 0 10 10">
   </path>
   <g class="non-terminal">
    <path d="M60 211h29.75">
    </path>
    <path d="M194.75 211h29.75">
    </path>
    <rect height="22" width="105" x="89.75" y="200">
    </rect>
    <a>
     <text x="142.25" y="215">
      drop_table
     </text>
    </a>
   </g>
   <path d="M224.5 211a10 10 0 0 0 10 -10v-160a10 10 0 0 1 10 -10">
   </path>
   <path d="M40 31a10 10 0 0 1 10 10v190a10 10 0 0 0 10 10">
   </path>
   <g class="non-terminal">
    <path d="M60 241h42.5">
    </path>
    <path d="M182 241h42.5">
    </path>
    <rect height="22" width="79.5" x="102.5" y="230">
    </rect>
    <a>
     <text x="142.25" y="245">
      drop_db
     </text>
    </a>
   </g>
   <path d="M224.5 241a10 10 0 0 0 10 -10v-190a10 10 0 0 1 10 -10">
   </path>
   <path d="M40 31a10 10 0 0 1 10 10v220a10 10 0 0 0 10 10">
   </path>
   <g class="non-terminal">
    <path d="M60 271h25.5">
    </path>
    <path d="M199 271h25.5">
    </path>
    <rect height="22" width="113.5" x="85.5" y="260">
    </rect>
    <a>
     <text x="142.25" y="275">
      delete_stmt
     </text>
    </a>
   </g>
   <path d="M224.5 271a10 10 0 0 0 10 -10v-220a10 10 0 0 1 10 -10">
   </path>
   <path d="M40 31a10 10 0 0 1 10 10v250a10 10 0 0 0 10 10">
   </path>
   <g class="non-terminal">
    <path d="M60 301h42.5">
    </path>
    <path d="M182 301h42.5">
    </path>
    <rect height="22" width="79.5" x="102.5" y="290">
    </rect>
    <a>
     <text x="142.25" y="305">
      show_db
     </text>
    </a>
   </g>
   <path d="M224.5 301a10 10 0 0 0 10 -10v-250a10 10 0 0 1 10 -10">
   </path>
   <path d="M40 31a10 10 0 0 1 10 10v280a10 10 0 0 0 10 10">
   </path>
   <g class="non-terminal">
    <path d="M60 331h0">
    </path>
    <path d="M224.5 331h0">
    </path>
    <rect height="22" width="164.5" x="60" y="320">
    </rect>
    <a>
     <text x="142.25" y="335">
      show_create_table
     </text>
    </a>
   </g>
   <path d="M224.5 331a10 10 0 0 0 10 -10v-280a10 10 0 0 1 10 -10">
   </path>
   <path d="M40 31a10 10 0 0 1 10 10v310a10 10 0 0 0 10 10">
   </path>
   <g class="non-terminal">
    <path d="M60 361h21.25">
    </path>
    <path d="M203.25 361h21.25">
    </path>
    <rect height="22" width="122" x="81.25" y="350">
    </rect>
    <a>
     <text x="142.25" y="365">
      show_columns
     </text>
    </a>
   </g>
   <path d="M224.5 361a10 10 0 0 0 10 -10v-310a10 10 0 0 1 10 -10">
   </path>
   <path d="M40 31a10 10 0 0 1 10 10v340a10 10 0 0 0 10 10">
   </path>
   <g class="non-terminal">
    <path d="M60 391h25.5">
    </path>
    <path d="M199 391h25.5">
    </path>
    <rect height="22" width="113.5" x="85.5" y="380">
    </rect>
    <a>
     <text x="142.25" y="395">
      show_tables
     </text>
    </a>
   </g>
   <path d="M224.5 391a10 10 0 0 0 10 -10v-340a10 10 0 0 1 10 -10">
   </path>
   <path d="M40 31a10 10 0 0 1 10 10v370a10 10 0 0 0 10 10">
   </path>
   <g class="non-terminal">
    <path d="M60 421h21.25">
    </path>
    <path d="M203.25 421h21.25">
    </path>
    <rect height="22" width="122" x="81.25" y="410">
    </rect>
    <a>
     <text x="142.25" y="425">
      explain_stmt
     </text>
    </a>
   </g>
   <path d="M224.5 421a10 10 0 0 0 10 -10v-370a10 10 0 0 1 10 -10">
   </path>
   <path d="M40 31a10 10 0 0 1 10 10v400a10 10 0 0 0 10 10">
   </path>
   <g class="non-terminal">
    <path d="M60 451h8.5">
    </path>
    <path d="M216 451h8.5">
    </path>
    <rect height="22" width="147.5" x="68.5" y="440">
    </rect>
    <a>
     <text x="142.25" y="455">
      kill_query_stmt
     </text>
    </a>
   </g>
   <path d="M224.5 451a10 10 0 0 0 10 -10v-400a10 10 0 0 1 10 -10">
   </path>
  </g>
  <path d="M 244.5 31 h 20 m 0 -10 v 20">
  </path>
 </g>
 <style>
  svg {
    width: 100%;
}

path {
    stroke-width: 3;
    stroke: black;
    fill: rgba(0,0,0,0);
}
text {
    font: bold 14px monospace;
    text-anchor: middle;
    fill: black;
}
text.diagram-text {
    font-size: 12px;
}
text.diagram-arrow {
    font-size: 16px;
}
text.label {
    text-anchor: start;
}
text.comment {
    font: italic 12px monospace;
}
g.special-sequence rect {
    fill: #ffe79a;
    stroke: black;
}
g.special-sequence text {
    font-style: italic;
}
rect {
    stroke-width: 3;
}
rect.group-box {
    stroke: gray;
    stroke-dasharray: 10 5;
    fill: none;
}
g.non-terminal rect {
    fill: #feffdf;
    stroke: black;
}
g.terminal rect {
    fill: #feffdf;
    stroke: black;
}
path.diagram-text {
    stroke-width: 3;
    stroke: black;
    fill: white;
    cursor: help;
}
g.diagram-text:hover path.diagram-text {
    fill: #eee;
}
 </style>
</svg>
