<svg class="railroad-diagram" height="109" viewbox="0 0 711.5 109" width="711.5" xmlns="http://www.w3.org/2000/svg">
 <g transform="translate(.5 .5)">
  <g>
   <path d="M20 29v20m0 -10h20">
   </path>
  </g>
  <g>
   <path d="M40 39h0">
   </path>
   <path d="M671.5 39h0">
   </path>
   <path d="M40 39h20">
   </path>
   <g>
    <path d="M60 39h0">
    </path>
    <path d="M651.5 39h0">
    </path>
    <g class="terminal">
     <path d="M60 39h0">
     </path>
     <path d="M131 39h0">
     </path>
     <rect height="22" rx="10" ry="10" width="71" x="60" y="28">
     </rect>
     <text x="95.5" y="43">
      SHARDS
     </text>
    </g>
    <path d="M131 39h10">
    </path>
    <path d="M141 39h10">
    </path>
    <g class="terminal">
     <path d="M151 39h0">
     </path>
     <path d="M179.5 39h0">
     </path>
     <rect height="22" rx="10" ry="10" width="28.5" x="151" y="28">
     </rect>
     <text x="165.25" y="43">
      (
     </text>
    </g>
    <path d="M179.5 39h10">
    </path>
    <path d="M189.5 39h10">
    </path>
    <g class="non-terminal">
     <path d="M199.5 39h0">
     </path>
     <path d="M347 39h0">
     </path>
     <rect height="22" width="147.5" x="199.5" y="28">
     </rect>
     <a>
      <text x="273.25" y="43">
       integer_literal
      </text>
     </a>
    </g>
    <path d="M347 39h10">
    </path>
    <g>
     <path d="M357 39h0">
     </path>
     <path d="M613 39h0">
     </path>
     <path d="M357 39a10 10 0 0 0 10 -10v0a10 10 0 0 1 10 -10">
     </path>
     <g>
      <path d="M377 19h216">
      </path>
     </g>
     <path d="M593 19a10 10 0 0 1 10 10v0a10 10 0 0 0 10 10">
     </path>
     <path d="M357 39h20">
     </path>
     <g>
      <path d="M377 39h0">
      </path>
      <path d="M593 39h0">
      </path>
      <path d="M377 39h10">
      </path>
      <g>
       <path d="M387 39h0">
       </path>
       <path d="M583 39h0">
       </path>
       <g class="terminal">
        <path d="M387 39h0">
        </path>
        <path d="M415.5 39h0">
        </path>
        <rect height="22" rx="10" ry="10" width="28.5" x="387" y="28">
        </rect>
        <text x="401.25" y="43">
         ,
        </text>
       </g>
       <path d="M415.5 39h10">
       </path>
       <path d="M425.5 39h10">
       </path>
       <g class="non-terminal">
        <path d="M435.5 39h0">
        </path>
        <path d="M583 39h0">
        </path>
        <rect height="22" width="147.5" x="435.5" y="28">
        </rect>
        <a>
         <text x="509.25" y="43">
          integer_literal
         </text>
        </a>
       </g>
      </g>
      <path d="M583 39h10">
      </path>
      <path d="M387 39a10 10 0 0 0 -10 10v0a10 10 0 0 0 10 10">
      </path>
      <g>
       <path d="M387 59h196">
       </path>
      </g>
      <path d="M583 59a10 10 0 0 0 10 -10v0a10 10 0 0 0 -10 -10">
      </path>
     </g>
     <path d="M593 39h20">
     </path>
    </g>
    <path d="M613 39h10">
    </path>
    <g class="terminal">
     <path d="M623 39h0">
     </path>
     <path d="M651.5 39h0">
     </path>
     <rect height="22" rx="10" ry="10" width="28.5" x="623" y="28">
     </rect>
     <text x="637.25" y="43">
      )
     </text>
    </g>
   </g>
   <path d="M651.5 39h20">
   </path>
   <path d="M40 39a10 10 0 0 1 10 10v19a10 10 0 0 0 10 10">
   </path>
   <g>
    <path d="M60 78h145">
    </path>
    <path d="M506.5 78h145">
    </path>
    <g class="terminal">
     <path d="M205 78h0">
     </path>
     <path d="M284.5 78h0">
     </path>
     <rect height="22" rx="10" ry="10" width="79.5" x="205" y="67">
     </rect>
     <text x="244.75" y="82">
      FLATTEN
     </text>
    </g>
    <path d="M284.5 78h10">
    </path>
    <path d="M294.5 78h10">
    </path>
    <g class="terminal">
     <path d="M304.5 78h0">
     </path>
     <path d="M333 78h0">
     </path>
     <rect height="22" rx="10" ry="10" width="28.5" x="304.5" y="67">
     </rect>
     <text x="318.75" y="82">
      (
     </text>
    </g>
    <path d="M333 78h10">
    </path>
    <path d="M343 78h10">
    </path>
    <g class="non-terminal">
     <path d="M353 78h0">
     </path>
     <path d="M458 78h0">
     </path>
     <rect height="22" width="105" x="353" y="67">
     </rect>
     <a>
      <text x="405.5" y="82">
       identifier
      </text>
     </a>
    </g>
    <path d="M458 78h10">
    </path>
    <path d="M468 78h10">
    </path>
    <g class="terminal">
     <path d="M478 78h0">
     </path>
     <path d="M506.5 78h0">
     </path>
     <rect height="22" rx="10" ry="10" width="28.5" x="478" y="67">
     </rect>
     <text x="492.25" y="82">
      )
     </text>
    </g>
   </g>
   <path d="M651.5 78a10 10 0 0 0 10 -10v-19a10 10 0 0 1 10 -10">
   </path>
  </g>
  <path d="M 671.5 39 h 20 m 0 -10 v 20">
  </path>
 </g>
 <style>
  svg {
    width: 100%;
}

path {
    stroke-width: 3;
    stroke: black;
    fill: rgba(0,0,0,0);
}
text {
    font: bold 14px monospace;
    text-anchor: middle;
    fill: black;
}
text.diagram-text {
    font-size: 12px;
}
text.diagram-arrow {
    font-size: 16px;
}
text.label {
    text-anchor: start;
}
text.comment {
    font: italic 12px monospace;
}
g.special-sequence rect {
    fill: #ffe79a;
    stroke: black;
}
g.special-sequence text {
    font-style: italic;
}
rect {
    stroke-width: 3;
}
rect.group-box {
    stroke: gray;
    stroke-dasharray: 10 5;
    fill: none;
}
g.non-terminal rect {
    fill: #feffdf;
    stroke: black;
}
g.terminal rect {
    fill: #feffdf;
    stroke: black;
}
path.diagram-text {
    stroke-width: 3;
    stroke: black;
    fill: white;
    cursor: help;
}
g.diagram-text:hover path.diagram-text {
    fill: #eee;
}
 </style>
</svg>
