<svg class="railroad-diagram" height="79" viewbox="0 0 623.5 79" width="623.5" xmlns="http://www.w3.org/2000/svg">
 <g transform="translate(.5 .5)">
  <g>
   <path d="M20 29v20m0 -10h20">
   </path>
  </g>
  <path d="M40 39h10">
  </path>
  <g>
   <path d="M50 39h0">
   </path>
   <path d="M573.5 39h0">
   </path>
   <g class="terminal">
    <path d="M50 39h0">
    </path>
    <path d="M104 39h0">
    </path>
    <rect height="22" rx="10" ry="10" width="54" x="50" y="28">
    </rect>
    <text x="77" y="43">
     WITH
    </text>
   </g>
   <path d="M104 39h10">
   </path>
   <path d="M114 39h10">
   </path>
   <g class="terminal">
    <path d="M124 39h0">
    </path>
    <path d="M152.5 39h0">
    </path>
    <rect height="22" rx="10" ry="10" width="28.5" x="124" y="28">
    </rect>
    <text x="138.25" y="43">
     (
    </text>
   </g>
   <path d="M152.5 39h10">
   </path>
   <path d="M162.5 39h10">
   </path>
   <g class="non-terminal">
    <path d="M172.5 39h0">
    </path>
    <path d="M294.5 39h0">
    </path>
    <rect height="22" width="122" x="172.5" y="28">
    </rect>
    <a>
     <text x="233.5" y="43">
      table_option
     </text>
    </a>
   </g>
   <path d="M294.5 39h10">
   </path>
   <g>
    <path d="M304.5 39h0">
    </path>
    <path d="M535 39h0">
    </path>
    <path d="M304.5 39a10 10 0 0 0 10 -10v0a10 10 0 0 1 10 -10">
    </path>
    <g>
     <path d="M324.5 19h190.5">
     </path>
    </g>
    <path d="M515 19a10 10 0 0 1 10 10v0a10 10 0 0 0 10 10">
    </path>
    <path d="M304.5 39h20">
    </path>
    <g>
     <path d="M324.5 39h0">
     </path>
     <path d="M515 39h0">
     </path>
     <path d="M324.5 39h10">
     </path>
     <g>
      <path d="M334.5 39h0">
      </path>
      <path d="M505 39h0">
      </path>
      <g class="terminal">
       <path d="M334.5 39h0">
       </path>
       <path d="M363 39h0">
       </path>
       <rect height="22" rx="10" ry="10" width="28.5" x="334.5" y="28">
       </rect>
       <text x="348.75" y="43">
        ,
       </text>
      </g>
      <path d="M363 39h10">
      </path>
      <path d="M373 39h10">
      </path>
      <g class="non-terminal">
       <path d="M383 39h0">
       </path>
       <path d="M505 39h0">
       </path>
       <rect height="22" width="122" x="383" y="28">
       </rect>
       <a>
        <text x="444" y="43">
         table_option
        </text>
       </a>
      </g>
     </g>
     <path d="M505 39h10">
     </path>
     <path d="M334.5 39a10 10 0 0 0 -10 10v0a10 10 0 0 0 10 10">
     </path>
     <g>
      <path d="M334.5 59h170.5">
      </path>
     </g>
     <path d="M505 59a10 10 0 0 0 10 -10v0a10 10 0 0 0 -10 -10">
     </path>
    </g>
    <path d="M515 39h20">
    </path>
   </g>
   <path d="M535 39h10">
   </path>
   <g class="terminal">
    <path d="M545 39h0">
    </path>
    <path d="M573.5 39h0">
    </path>
    <rect height="22" rx="10" ry="10" width="28.5" x="545" y="28">
    </rect>
    <text x="559.25" y="43">
     )
    </text>
   </g>
  </g>
  <path d="M573.5 39h10">
  </path>
  <path d="M 583.5 39 h 20 m 0 -10 v 20">
  </path>
 </g>
 <style>
  svg {
    width: 100%;
}

path {
    stroke-width: 3;
    stroke: black;
    fill: rgba(0,0,0,0);
}
text {
    font: bold 14px monospace;
    text-anchor: middle;
    fill: black;
}
text.diagram-text {
    font-size: 12px;
}
text.diagram-arrow {
    font-size: 16px;
}
text.label {
    text-anchor: start;
}
text.comment {
    font: italic 12px monospace;
}
g.special-sequence rect {
    fill: #ffe79a;
    stroke: black;
}
g.special-sequence text {
    font-style: italic;
}
rect {
    stroke-width: 3;
}
rect.group-box {
    stroke: gray;
    stroke-dasharray: 10 5;
    fill: none;
}
g.non-terminal rect {
    fill: #feffdf;
    stroke: black;
}
g.terminal rect {
    fill: #feffdf;
    stroke: black;
}
path.diagram-text {
    stroke-width: 3;
    stroke: black;
    fill: white;
    cursor: help;
}
g.diagram-text:hover path.diagram-text {
    fill: #eee;
}
 </style>
</svg>
