<svg class="railroad-diagram" height="440" viewbox="0 0 772 440" width="772" xmlns="http://www.w3.org/2000/svg">
 <g transform="translate(.5 .5)">
  <g>
   <path d="M20 21v20m0 -10h20">
   </path>
  </g>
  <g>
   <path d="M40 31h0">
   </path>
   <path d="M732 31h0">
   </path>
   <path d="M40 31h20">
   </path>
   <g class="terminal">
    <path d="M60 31h299">
    </path>
    <path d="M413 31h299">
    </path>
    <rect height="22" rx="10" ry="10" width="54" x="359" y="20">
    </rect>
    <text x="386" y="35">
     BOOL
    </text>
   </g>
   <path d="M712 31h20">
   </path>
   <path d="M40 31a10 10 0 0 1 10 10v18a10 10 0 0 0 10 10">
   </path>
   <g>
    <path d="M60 69h97.75">
    </path>
    <path d="M614.25 69h97.75">
    </path>
    <g class="terminal">
     <path d="M157.75 69h0">
     </path>
     <path d="M237.25 69h0">
     </path>
     <rect height="22" rx="10" ry="10" width="79.5" x="157.75" y="58">
     </rect>
     <text x="197.5" y="73">
      DECIMAL
     </text>
    </g>
    <path d="M237.25 69h10">
    </path>
    <g>
     <path d="M247.25 69h0">
     </path>
     <path d="M614.25 69h0">
     </path>
     <path d="M247.25 69a10 10 0 0 0 10 -10v0a10 10 0 0 1 10 -10">
     </path>
     <g>
      <path d="M267.25 49h327">
      </path>
     </g>
     <path d="M594.25 49a10 10 0 0 1 10 10v0a10 10 0 0 0 10 10">
     </path>
     <path d="M247.25 69h20">
     </path>
     <g>
      <path d="M267.25 69h0">
      </path>
      <path d="M594.25 69h0">
      </path>
      <g class="terminal">
       <path d="M267.25 69h0">
       </path>
       <path d="M295.75 69h0">
       </path>
       <rect height="22" rx="10" ry="10" width="28.5" x="267.25" y="58">
       </rect>
       <text x="281.5" y="73">
        (
       </text>
      </g>
      <path d="M295.75 69h10">
      </path>
      <path d="M305.75 69h10">
      </path>
      <g class="terminal">
       <path d="M315.75 69h0">
       </path>
       <path d="M378.25 69h0">
       </path>
       <rect height="22" rx="10" ry="10" width="62.5" x="315.75" y="58">
       </rect>
       <text x="347" y="73">
        SCALE
       </text>
      </g>
      <path d="M378.25 69h10">
      </path>
      <path d="M388.25 69h10">
      </path>
      <g class="non-terminal">
       <path d="M398.25 69h0">
       </path>
       <path d="M545.75 69h0">
       </path>
       <rect height="22" width="147.5" x="398.25" y="58">
       </rect>
       <a>
        <text x="472" y="73">
         integer_literal
        </text>
       </a>
      </g>
      <path d="M545.75 69h10">
      </path>
      <path d="M555.75 69h10">
      </path>
      <g class="terminal">
       <path d="M565.75 69h0">
       </path>
       <path d="M594.25 69h0">
       </path>
       <rect height="22" rx="10" ry="10" width="28.5" x="565.75" y="58">
       </rect>
       <text x="580" y="73">
        )
       </text>
      </g>
     </g>
     <path d="M594.25 69h20">
     </path>
    </g>
   </g>
   <path d="M712 69a10 10 0 0 0 10 -10v-18a10 10 0 0 1 10 -10">
   </path>
   <path d="M40 31a10 10 0 0 1 10 10v48a10 10 0 0 0 10 10">
   </path>
   <g class="terminal">
    <path d="M60 99h307.5">
    </path>
    <path d="M404.5 99h307.5">
    </path>
    <rect height="22" rx="10" ry="10" width="37" x="367.5" y="88">
    </rect>
    <text x="386" y="103">
     ID
    </text>
   </g>
   <path d="M712 99a10 10 0 0 0 10 -10v-48a10 10 0 0 1 10 -10">
   </path>
   <path d="M40 31a10 10 0 0 1 10 10v78a10 10 0 0 0 10 10">
   </path>
   <g class="terminal">
    <path d="M60 129h294.75">
    </path>
    <path d="M417.25 129h294.75">
    </path>
    <rect height="22" rx="10" ry="10" width="62.5" x="354.75" y="118">
    </rect>
    <text x="386" y="133">
     IDSET
    </text>
   </g>
   <path d="M712 129a10 10 0 0 0 10 -10v-78a10 10 0 0 1 10 -10">
   </path>
   <path d="M40 31a10 10 0 0 1 10 10v116a10 10 0 0 0 10 10">
   </path>
   <g>
    <path d="M60 167h17">
    </path>
    <path d="M695 167h17">
    </path>
    <g class="terminal">
     <path d="M77 167h0">
     </path>
     <path d="M148 167h0">
     </path>
     <rect height="22" rx="10" ry="10" width="71" x="77" y="156">
     </rect>
     <text x="112.5" y="171">
      IDSETQ
     </text>
    </g>
    <path d="M148 167h10">
    </path>
    <path d="M158 167h10">
    </path>
    <g class="terminal">
     <path d="M168 167h0">
     </path>
     <path d="M281.5 167h0">
     </path>
     <rect height="22" rx="10" ry="10" width="113.5" x="168" y="156">
     </rect>
     <text x="224.75" y="171">
      TIMEQUANTUM
     </text>
    </g>
    <path d="M281.5 167h10">
    </path>
    <path d="M291.5 167h10">
    </path>
    <g class="non-terminal">
     <path d="M301.5 167h0">
     </path>
     <path d="M440.5 167h0">
     </path>
     <rect height="22" width="139" x="301.5" y="156">
     </rect>
     <a>
      <text x="371" y="171">
       string_literal
      </text>
     </a>
    </g>
    <path d="M440.5 167h10">
    </path>
    <g>
     <path d="M450.5 167h0">
     </path>
     <path d="M695 167h0">
     </path>
     <path d="M450.5 167a10 10 0 0 0 10 -10v0a10 10 0 0 1 10 -10">
     </path>
     <g>
      <path d="M470.5 147h204.5">
      </path>
     </g>
     <path d="M675 147a10 10 0 0 1 10 10v0a10 10 0 0 0 10 10">
     </path>
     <path d="M450.5 167h20">
     </path>
     <g>
      <path d="M470.5 167h0">
      </path>
      <path d="M675 167h0">
      </path>
      <g class="terminal">
       <path d="M470.5 167h0">
       </path>
       <path d="M516 167h0">
       </path>
       <rect height="22" rx="10" ry="10" width="45.5" x="470.5" y="156">
       </rect>
       <text x="493.25" y="171">
        TTL
       </text>
      </g>
      <path d="M516 167h10">
      </path>
      <path d="M526 167h10">
      </path>
      <g class="non-terminal">
       <path d="M536 167h0">
       </path>
       <path d="M675 167h0">
       </path>
       <rect height="22" width="139" x="536" y="156">
       </rect>
       <a>
        <text x="605.5" y="171">
         string_literal
        </text>
       </a>
      </g>
     </g>
     <path d="M675 167h20">
     </path>
    </g>
   </g>
   <path d="M712 167a10 10 0 0 0 10 -10v-116a10 10 0 0 1 10 -10">
   </path>
   <path d="M40 31a10 10 0 0 1 10 10v154a10 10 0 0 0 10 10">
   </path>
   <g>
    <path d="M60 205h45.25">
    </path>
    <path d="M666.75 205h45.25">
    </path>
    <g class="terminal">
     <path d="M105.25 205h0">
     </path>
     <path d="M150.75 205h0">
     </path>
     <rect height="22" rx="10" ry="10" width="45.5" x="105.25" y="194">
     </rect>
     <text x="128" y="209">
      INT
     </text>
    </g>
    <path d="M150.75 205h10">
    </path>
    <g>
     <path d="M160.75 205h0">
     </path>
     <path d="M413.75 205h0">
     </path>
     <path d="M160.75 205a10 10 0 0 0 10 -10v0a10 10 0 0 1 10 -10">
     </path>
     <g>
      <path d="M180.75 185h213">
      </path>
     </g>
     <path d="M393.75 185a10 10 0 0 1 10 10v0a10 10 0 0 0 10 10">
     </path>
     <path d="M160.75 205h20">
     </path>
     <g>
      <path d="M180.75 205h0">
      </path>
      <path d="M393.75 205h0">
      </path>
      <g class="terminal">
       <path d="M180.75 205h0">
       </path>
       <path d="M226.25 205h0">
       </path>
       <rect height="22" rx="10" ry="10" width="45.5" x="180.75" y="194">
       </rect>
       <text x="203.5" y="209">
        MIN
       </text>
      </g>
      <path d="M226.25 205h10">
      </path>
      <path d="M236.25 205h10">
      </path>
      <g class="non-terminal">
       <path d="M246.25 205h0">
       </path>
       <path d="M393.75 205h0">
       </path>
       <rect height="22" width="147.5" x="246.25" y="194">
       </rect>
       <a>
        <text x="320" y="209">
         integer_literal
        </text>
       </a>
      </g>
     </g>
     <path d="M393.75 205h20">
     </path>
    </g>
    <g>
     <path d="M413.75 205h0">
     </path>
     <path d="M666.75 205h0">
     </path>
     <path d="M413.75 205a10 10 0 0 0 10 -10v0a10 10 0 0 1 10 -10">
     </path>
     <g>
      <path d="M433.75 185h213">
      </path>
     </g>
     <path d="M646.75 185a10 10 0 0 1 10 10v0a10 10 0 0 0 10 10">
     </path>
     <path d="M413.75 205h20">
     </path>
     <g>
      <path d="M433.75 205h0">
      </path>
      <path d="M646.75 205h0">
      </path>
      <g class="terminal">
       <path d="M433.75 205h0">
       </path>
       <path d="M479.25 205h0">
       </path>
       <rect height="22" rx="10" ry="10" width="45.5" x="433.75" y="194">
       </rect>
       <text x="456.5" y="209">
        MAX
       </text>
      </g>
      <path d="M479.25 205h10">
      </path>
      <path d="M489.25 205h10">
      </path>
      <g class="non-terminal">
       <path d="M499.25 205h0">
       </path>
       <path d="M646.75 205h0">
       </path>
       <rect height="22" width="147.5" x="499.25" y="194">
       </rect>
       <a>
        <text x="573" y="209">
         integer_literal
        </text>
       </a>
      </g>
     </g>
     <path d="M646.75 205h20">
     </path>
    </g>
   </g>
   <path d="M712 205a10 10 0 0 0 10 -10v-154a10 10 0 0 1 10 -10">
   </path>
   <path d="M40 31a10 10 0 0 1 10 10v192a10 10 0 0 0 10 10">
   </path>
   <g>
    <path d="M60 243h194.25">
    </path>
    <path d="M517.75 243h194.25">
    </path>
    <g class="terminal">
     <path d="M254.25 243h0">
     </path>
     <path d="M325.25 243h0">
     </path>
     <rect height="22" rx="10" ry="10" width="71" x="254.25" y="232">
     </rect>
     <text x="289.75" y="247">
      STRING
     </text>
    </g>
    <path d="M325.25 243h10">
    </path>
    <g>
     <path d="M335.25 243h0">
     </path>
     <path d="M517.75 243h0">
     </path>
     <path d="M335.25 243a10 10 0 0 0 10 -10v0a10 10 0 0 1 10 -10">
     </path>
     <g>
      <path d="M355.25 223h142.5">
      </path>
     </g>
     <path d="M497.75 223a10 10 0 0 1 10 10v0a10 10 0 0 0 10 10">
     </path>
     <path d="M335.25 243h20">
     </path>
     <g>
      <path d="M355.25 243h0">
      </path>
      <path d="M497.75 243h0">
      </path>
      <g class="terminal">
       <path d="M355.25 243h0">
       </path>
       <path d="M383.75 243h0">
       </path>
       <rect height="22" rx="10" ry="10" width="28.5" x="355.25" y="232">
       </rect>
       <text x="369.5" y="247">
        (
       </text>
      </g>
      <path d="M383.75 243h10">
      </path>
      <path d="M393.75 243h10">
      </path>
      <g class="terminal">
       <path d="M403.75 243h0">
       </path>
       <path d="M449.25 243h0">
       </path>
       <rect height="22" rx="10" ry="10" width="45.5" x="403.75" y="232">
       </rect>
       <text x="426.5" y="247">
        MAX
       </text>
      </g>
      <path d="M449.25 243h10">
      </path>
      <path d="M459.25 243h10">
      </path>
      <g class="terminal">
       <path d="M469.25 243h0">
       </path>
       <path d="M497.75 243h0">
       </path>
       <rect height="22" rx="10" ry="10" width="28.5" x="469.25" y="232">
       </rect>
       <text x="483.5" y="247">
        )
       </text>
      </g>
     </g>
     <path d="M497.75 243h20">
     </path>
    </g>
   </g>
   <path d="M712 243a10 10 0 0 0 10 -10v-192a10 10 0 0 1 10 -10">
   </path>
   <path d="M40 31a10 10 0 0 1 10 10v222a10 10 0 0 0 10 10">
   </path>
   <g class="terminal">
    <path d="M60 273h277.75">
    </path>
    <path d="M434.25 273h277.75">
    </path>
    <rect height="22" rx="10" ry="10" width="96.5" x="337.75" y="262">
    </rect>
    <text x="386" y="277">
     STRINGSET
    </text>
   </g>
   <path d="M712 273a10 10 0 0 0 10 -10v-222a10 10 0 0 1 10 -10">
   </path>
   <path d="M40 31a10 10 0 0 1 10 10v260a10 10 0 0 0 10 10">
   </path>
   <g>
    <path d="M60 311h0">
    </path>
    <path d="M712 311h0">
    </path>
    <g class="terminal">
     <path d="M60 311h0">
     </path>
     <path d="M165 311h0">
     </path>
     <rect height="22" rx="10" ry="10" width="105" x="60" y="300">
     </rect>
     <text x="112.5" y="315">
      STRINGSETQ
     </text>
    </g>
    <path d="M165 311h10">
    </path>
    <path d="M175 311h10">
    </path>
    <g class="terminal">
     <path d="M185 311h0">
     </path>
     <path d="M298.5 311h0">
     </path>
     <rect height="22" rx="10" ry="10" width="113.5" x="185" y="300">
     </rect>
     <text x="241.75" y="315">
      TIMEQUANTUM
     </text>
    </g>
    <path d="M298.5 311h10">
    </path>
    <path d="M308.5 311h10">
    </path>
    <g class="non-terminal">
     <path d="M318.5 311h0">
     </path>
     <path d="M457.5 311h0">
     </path>
     <rect height="22" width="139" x="318.5" y="300">
     </rect>
     <a>
      <text x="388" y="315">
       string_literal
      </text>
     </a>
    </g>
    <path d="M457.5 311h10">
    </path>
    <g>
     <path d="M467.5 311h0">
     </path>
     <path d="M712 311h0">
     </path>
     <path d="M467.5 311a10 10 0 0 0 10 -10v0a10 10 0 0 1 10 -10">
     </path>
     <g>
      <path d="M487.5 291h204.5">
      </path>
     </g>
     <path d="M692 291a10 10 0 0 1 10 10v0a10 10 0 0 0 10 10">
     </path>
     <path d="M467.5 311h20">
     </path>
     <g>
      <path d="M487.5 311h0">
      </path>
      <path d="M692 311h0">
      </path>
      <g class="terminal">
       <path d="M487.5 311h0">
       </path>
       <path d="M533 311h0">
       </path>
       <rect height="22" rx="10" ry="10" width="45.5" x="487.5" y="300">
       </rect>
       <text x="510.25" y="315">
        TTL
       </text>
      </g>
      <path d="M533 311h10">
      </path>
      <path d="M543 311h10">
      </path>
      <g class="non-terminal">
       <path d="M553 311h0">
       </path>
       <path d="M692 311h0">
       </path>
       <rect height="22" width="139" x="553" y="300">
       </rect>
       <a>
        <text x="622.5" y="315">
         string_literal
        </text>
       </a>
      </g>
     </g>
     <path d="M692 311h20">
     </path>
    </g>
   </g>
   <path d="M712 311a10 10 0 0 0 10 -10v-260a10 10 0 0 1 10 -10">
   </path>
   <path d="M40 31a10 10 0 0 1 10 10v290a10 10 0 0 0 10 10">
   </path>
   <g>
    <path d="M60 341h144.25">
    </path>
    <path d="M567.75 341h144.25">
    </path>
    <g class="terminal">
     <path d="M204.25 341h0">
     </path>
     <path d="M300.75 341h0">
     </path>
     <rect height="22" rx="10" ry="10" width="96.5" x="204.25" y="330">
     </rect>
     <text x="252.5" y="345">
      TIMESTAMP
     </text>
    </g>
    <path d="M300.75 341h10">
    </path>
    <path d="M310.75 341h10">
    </path>
    <g class="terminal">
     <path d="M320.75 341h0">
     </path>
     <path d="M408.75 341h0">
     </path>
     <rect height="22" rx="10" ry="10" width="88" x="320.75" y="330">
     </rect>
     <text x="364.75" y="345">
      TIMEUNIT
     </text>
    </g>
    <path d="M408.75 341h10">
    </path>
    <path d="M418.75 341h10">
    </path>
    <g class="non-terminal">
     <path d="M428.75 341h0">
     </path>
     <path d="M567.75 341h0">
     </path>
     <rect height="22" width="139" x="428.75" y="330">
     </rect>
     <a>
      <text x="498.25" y="345">
       string_literal
      </text>
     </a>
    </g>
   </g>
   <path d="M712 341a10 10 0 0 0 10 -10v-290a10 10 0 0 1 10 -10">
   </path>
   <path d="M40 31a10 10 0 0 1 10 10v328a10 10 0 0 0 10 10">
   </path>
   <g>
    <path d="M60 379h47.75">
    </path>
    <path d="M664.25 379h47.75">
    </path>
    <g class="terminal">
     <path d="M107.75 379h0">
     </path>
     <path d="M187.25 379h0">
     </path>
     <rect height="22" rx="10" ry="10" width="79.5" x="107.75" y="368">
     </rect>
     <text x="147.5" y="383">
      VARCHAR
     </text>
    </g>
    <path d="M187.25 379h10">
    </path>
    <g>
     <path d="M197.25 379h0">
     </path>
     <path d="M481.75 379h0">
     </path>
     <path d="M197.25 379a10 10 0 0 0 10 -10v0a10 10 0 0 1 10 -10">
     </path>
     <g>
      <path d="M217.25 359h244.5">
      </path>
     </g>
     <path d="M461.75 359a10 10 0 0 1 10 10v0a10 10 0 0 0 10 10">
     </path>
     <path d="M197.25 379h20">
     </path>
     <g>
      <path d="M217.25 379h0">
      </path>
      <path d="M461.75 379h0">
      </path>
      <g class="terminal">
       <path d="M217.25 379h0">
       </path>
       <path d="M245.75 379h0">
       </path>
       <rect height="22" rx="10" ry="10" width="28.5" x="217.25" y="368">
       </rect>
       <text x="231.5" y="383">
        (
       </text>
      </g>
      <path d="M245.75 379h10">
      </path>
      <path d="M255.75 379h10">
      </path>
      <g class="non-terminal">
       <path d="M265.75 379h0">
       </path>
       <path d="M413.25 379h0">
       </path>
       <rect height="22" width="147.5" x="265.75" y="368">
       </rect>
       <a>
        <text x="339.5" y="383">
         integer_literal
        </text>
       </a>
      </g>
      <path d="M413.25 379h10">
      </path>
      <path d="M423.25 379h10">
      </path>
      <g class="terminal">
       <path d="M433.25 379h0">
       </path>
       <path d="M461.75 379h0">
       </path>
       <rect height="22" rx="10" ry="10" width="28.5" x="433.25" y="368">
       </rect>
       <text x="447.5" y="383">
        )
       </text>
      </g>
     </g>
     <path d="M461.75 379h20">
     </path>
    </g>
    <g>
     <path d="M481.75 379h0">
     </path>
     <path d="M664.25 379h0">
     </path>
     <path d="M481.75 379a10 10 0 0 0 10 -10v0a10 10 0 0 1 10 -10">
     </path>
     <g>
      <path d="M501.75 359h142.5">
      </path>
     </g>
     <path d="M644.25 359a10 10 0 0 1 10 10v0a10 10 0 0 0 10 10">
     </path>
     <path d="M481.75 379h20">
     </path>
     <g>
      <path d="M501.75 379h0">
      </path>
      <path d="M644.25 379h0">
      </path>
      <g class="terminal">
       <path d="M501.75 379h0">
       </path>
       <path d="M530.25 379h0">
       </path>
       <rect height="22" rx="10" ry="10" width="28.5" x="501.75" y="368">
       </rect>
       <text x="516" y="383">
        (
       </text>
      </g>
      <path d="M530.25 379h10">
      </path>
      <path d="M540.25 379h10">
      </path>
      <g class="terminal">
       <path d="M550.25 379h0">
       </path>
       <path d="M595.75 379h0">
       </path>
       <rect height="22" rx="10" ry="10" width="45.5" x="550.25" y="368">
       </rect>
       <text x="573" y="383">
        MAX
       </text>
      </g>
      <path d="M595.75 379h10">
      </path>
      <path d="M605.75 379h10">
      </path>
      <g class="terminal">
       <path d="M615.75 379h0">
       </path>
       <path d="M644.25 379h0">
       </path>
       <rect height="22" rx="10" ry="10" width="28.5" x="615.75" y="368">
       </rect>
       <text x="630" y="383">
        )
       </text>
      </g>
     </g>
     <path d="M644.25 379h20">
     </path>
    </g>
   </g>
   <path d="M712 379a10 10 0 0 0 10 -10v-328a10 10 0 0 1 10 -10">
   </path>
   <path d="M40 31a10 10 0 0 1 10 10v358a10 10 0 0 0 10 10">
   </path>
   <g>
    <path d="M60 409h158.25">
    </path>
    <path d="M553.75 409h158.25">
    </path>
    <g class="terminal">
     <path d="M218.25 409h0">
     </path>
     <path d="M289.25 409h0">
     </path>
     <rect height="22" rx="10" ry="10" width="71" x="218.25" y="398">
     </rect>
     <text x="253.75" y="413">
      VECTOR
     </text>
    </g>
    <path d="M289.25 409h10">
    </path>
    <path d="M299.25 409h10">
    </path>
    <g class="terminal">
     <path d="M309.25 409h0">
     </path>
     <path d="M337.75 409h0">
     </path>
     <rect height="22" rx="10" ry="10" width="28.5" x="309.25" y="398">
     </rect>
     <text x="323.5" y="413">
      (
     </text>
    </g>
    <path d="M337.75 409h10">
    </path>
    <path d="M347.75 409h10">
    </path>
    <g class="non-terminal">
     <path d="M357.75 409h0">
     </path>
     <path d="M505.25 409h0">
     </path>
     <rect height="22" width="147.5" x="357.75" y="398">
     </rect>
     <a>
      <text x="431.5" y="413">
       integer_literal
      </text>
     </a>
    </g>
    <path d="M505.25 409h10">
    </path>
    <path d="M515.25 409h10">
    </path>
    <g class="terminal">
     <path d="M525.25 409h0">
     </path>
     <path d="M553.75 409h0">
     </path>
     <rect height="22" rx="10" ry="10" width="28.5" x="525.25" y="398">
     </rect>
     <text x="539.5" y="413">
      )
     </text>
    </g>
   </g>
   <path d="M712 409a10 10 0 0 0 10 -10v-358a10 10 0 0 1 10 -10">
   </path>
  </g>
  <path d="M 732 31 h 20 m 0 -10 v 20">
  </path>
 </g>
 <style>
  svg {
    width: 100%;
}

path {
    stroke-width: 3;
    stroke: black;
    fill: rgba(0,0,0,0);
}
text {
    font: bold 14px monospace;
    text-anchor: middle;
    fill: black;
}
text.diagram-text {
    font-size: 12px;
}
text.diagram-arrow {
    font-size: 16px;
}
text.label {
    text-anchor: start;
}
text.comment {
    font: italic 12px monospace;
}
g.special-sequence rect {
    fill: #ffe79a;
    stroke: black;
}
g.special-sequence text {
    font-style: italic;
}
rect {
    stroke-width: 3;
}
rect.group-box {
    stroke: gray;
    stroke-dasharray: 10 5;
    fill: none;
}
g.non-terminal rect {
    fill: #feffdf;
    stroke: black;
}
g.terminal rect {
    fill: #feffdf;
    stroke: black;
}
path.diagram-text {
    stroke-width: 3;
    stroke: black;
    fill: white;
    cursor: help;
}
g.diagram-text:hover path.diagram-text {
    fill: #eee;
}
 </style>
</svg>
